<?xml version="1.0" encoding="UTF-8"?>
<svg id="svg2" width="112.45" height="116.22" version="1.1" xmlns="http://www.w3.org/2000/svg" xmlns:cc="http://creativecommons.org/ns#" xmlns:dc="http://purl.org/dc/elements/1.1/" xmlns:rdf="http://www.w3.org/1999/02/22-rdf-syntax-ns#">
 <defs id="defs4">
  <linearGradient id="linearGradient3240" x1="95.827" x2="95.827" y1="805.18" y2="809.34" gradientUnits="userSpaceOnUse">
   <stop id="stop3242" stop-color="#acd5f2" offset="0"/>
   <stop id="stop3244" stop-color="#f7fcfe" offset="1"/>
  </linearGradient>
  <clipPath id="clipPath3236">
   <path id="path3238" d="m90.738 805.18h5.0895v4.1631h-5.0895z"/>
  </clipPath>
  <clipPath id="clipPath3230">
   <path id="path3232" d="m1.2474 845.39h592.75v-845.33h-592.75z"/>
  </clipPath>
 </defs>
 <metadata id="metadata7">
  <rdf:RDF>
   <cc:Work rdf:about="">
    <dc:format>image/svg+xml</dc:format>
    <dc:type rdf:resource="http://purl.org/dc/dcmitype/StillImage"/>
   </cc:Work>
  </rdf:RDF>
 </metadata>
 <g id="layer1" transform="translate(-42.456 -77.212)">
  <g id="g5194" transform="matrix(3.4114 0 0 -3.4114 -219.92 2859.5)"></g>
  <path id="path2860" d="m98.677 81.049c28.926 0 52.384 24.305 52.384 54.268 0 29.968-23.458 54.268-52.384 54.268-28.926 0-52.379-24.301-52.379-54.268 0-29.963 23.454-54.268 52.379-54.268zm0 54.268h52.384-52.384" fill="#f5821f" fill-rule="evenodd"/>
  <path id="path2862" d="m98.677 135.32h52.384c0 29.968-23.458 54.268-52.384 54.268-28.926 0-52.379-24.301-52.379-54.268 0-29.963 23.454-54.268 52.379-54.268 28.926 0 52.384 24.305 52.384 54.268h-52.384" fill="#f5821f" fill-rule="evenodd"/>
  <path id="path2864" d="m98.677 135.32h52.384c0 29.968-23.458 54.268-52.384 54.268-28.926 0-52.379-24.301-52.379-54.268 0-29.963 23.454-54.268 52.379-54.268 28.926 0 52.384 24.305 52.384 54.268h-52.384" fill="#f5841f" fill-rule="evenodd"/>
  <path id="path2866" d="m98.677 135.32h52.384c0 29.968-23.458 54.268-52.384 54.268-28.926 0-52.379-24.301-52.379-54.268 0-29.963 23.454-54.268 52.379-54.268 28.926 0 52.384 24.305 52.384 54.268h-52.384" fill="#f6851f" fill-rule="evenodd"/>
  <path id="path2868" d="m98.677 135.32h52.384c0 29.968-23.458 54.268-52.384 54.268-28.926 0-52.379-24.301-52.379-54.268 0-29.963 23.454-54.268 52.379-54.268 28.926 0 52.384 24.305 52.384 54.268h-52.384" fill="#f6881f" fill-rule="evenodd"/>
  <path id="path2870" d="m98.677 135.32h52.384c0 29.968-23.458 54.268-52.384 54.268-28.926 0-52.379-24.301-52.379-54.268 0-29.963 23.454-54.268 52.379-54.268 28.926 0 52.384 24.305 52.384 54.268h-52.384" fill="#f6891f" fill-rule="evenodd"/>
  <path id="path2872" d="m98.677 135.32h52.384c0 29.968-23.458 54.268-52.384 54.268-28.926 0-52.379-24.301-52.379-54.268 0-29.963 23.454-54.268 52.379-54.268 28.926 0 52.384 24.305 52.384 54.268h-52.384" fill="#f68b1e" fill-rule="evenodd"/>
  <path id="path2874" d="m98.677 135.32h52.384c0 29.968-23.458 54.268-52.384 54.268-28.926 0-52.379-24.301-52.379-54.268 0-29.963 23.454-54.268 52.379-54.268 28.926 0 52.384 24.305 52.384 54.268h-52.384" fill="#f68b1e" fill-rule="evenodd"/>
  <path id="path2876" d="m98.677 135.32h52.384c0 29.968-23.458 54.268-52.384 54.268-28.926 0-52.379-24.301-52.379-54.268 0-29.963 23.454-54.268 52.379-54.268 28.926 0 52.384 24.305 52.384 54.268h-52.384" fill="#f68c1e" fill-rule="evenodd"/>
  <path id="path2878" d="m98.677 135.32h52.384c0 29.968-23.458 54.268-52.384 54.268-28.926 0-52.379-24.301-52.379-54.268 0-29.963 23.454-54.268 52.379-54.268 28.926 0 52.384 24.305 52.384 54.268h-52.384" fill="#f78f1e" fill-rule="evenodd"/>
  <path id="path2880" d="m98.677 135.32h52.384c0 29.968-23.458 54.268-52.384 54.268-28.926 0-52.379-24.301-52.379-54.268 0-29.963 23.454-54.268 52.379-54.268 28.926 0 52.384 24.305 52.384 54.268h-52.384" fill="#f7901e" fill-rule="evenodd"/>
  <path id="path2882" d="m98.677 135.32h52.384c0 29.968-23.458 54.268-52.384 54.268-28.926 0-52.379-24.301-52.379-54.268 0-29.963 23.454-54.268 52.379-54.268 28.926 0 52.384 24.305 52.384 54.268h-52.384" fill="#f7921d" fill-rule="evenodd"/>
  <path id="path2884" d="m98.677 135.32h52.384c0 29.968-23.458 54.268-52.384 54.268-28.926 0-52.379-24.301-52.379-54.268 0-29.963 23.454-54.268 52.379-54.268 28.926 0 52.384 24.305 52.384 54.268h-52.384" fill="#f7931d" fill-rule="evenodd"/>
  <path id="path2886" d="m98.677 135.32h52.384c0 29.968-23.458 54.268-52.384 54.268-28.926 0-52.379-24.301-52.379-54.268 0-29.963 23.454-54.268 52.379-54.268 28.926 0 52.384 24.305 52.384 54.268h-52.384" fill="#f8951d" fill-rule="evenodd"/>
  <path id="path2888" d="m98.677 135.32h52.384c0 29.968-23.458 54.268-52.384 54.268-28.926 0-52.379-24.301-52.379-54.268 0-29.963 23.454-54.268 52.379-54.268 28.926 0 52.384 24.305 52.384 54.268h-52.384" fill="#f8981d" fill-rule="evenodd"/>
  <path id="path2890" d="m98.677 135.32h52.384c0 29.968-23.458 54.268-52.384 54.268-28.926 0-52.379-24.301-52.379-54.268 0-29.963 23.454-54.268 52.379-54.268 28.926 0 52.384 24.305 52.384 54.268h-52.384" fill="#f8991c" fill-rule="evenodd"/>
  <path id="path2892" d="m98.677 135.32h52.384c0 29.968-23.458 54.268-52.384 54.268-28.926 0-52.379-24.301-52.379-54.268 0-29.963 23.454-54.268 52.379-54.268 28.926 0 52.384 24.305 52.384 54.268h-52.384" fill="#f99b1c" fill-rule="evenodd"/>
  <path id="path2894" d="m98.677 135.32h52.384c0 29.968-23.458 54.268-52.384 54.268-28.926 0-52.379-24.301-52.379-54.268 0-29.963 23.454-54.268 52.379-54.268 28.926 0 52.384 24.305 52.384 54.268h-52.384" fill="#f99c1c" fill-rule="evenodd"/>
  <path id="path2896" d="m98.677 135.32h52.384c0 29.968-23.458 54.268-52.384 54.268-28.926 0-52.379-24.301-52.379-54.268 0-29.963 23.454-54.268 52.379-54.268 28.926 0 52.384 24.305 52.384 54.268h-52.384" fill="#f99e1b" fill-rule="evenodd"/>
  <path id="path2898" d="m98.677 135.32h52.384c0 29.968-23.458 54.268-52.384 54.268-28.926 0-52.379-24.301-52.379-54.268 0-29.963 23.454-54.268 52.379-54.268 28.926 0 52.384 24.305 52.384 54.268h-52.384" fill="#f99e1b" fill-rule="evenodd"/>
  <path id="path2900" d="m98.677 135.32h52.384c0 29.968-23.458 54.268-52.384 54.268-28.926 0-52.379-24.301-52.379-54.268 0-29.963 23.454-54.268 52.379-54.268 28.926 0 52.384 24.305 52.384 54.268h-52.384" fill="#faa21b" fill-rule="evenodd"/>
  <path id="path2902" d="m98.677 135.32h52.384c0 29.968-23.458 54.268-52.384 54.268-28.926 0-52.379-24.301-52.379-54.268 0-29.963 23.454-54.268 52.379-54.268 28.926 0 52.384 24.305 52.384 54.268h-52.384" fill="#faa21b" fill-rule="evenodd"/>
  <path id="path2904" d="m98.677 135.32h52.384c0 29.968-23.458 54.268-52.384 54.268-28.926 0-52.379-24.301-52.379-54.268 0-29.963 23.454-54.268 52.379-54.268 28.926 0 52.384 24.305 52.384 54.268h-52.384" fill="#faa31a" fill-rule="evenodd"/>
  <path id="path2906" d="m98.677 135.32h52.384c0 29.968-23.458 54.268-52.384 54.268-28.926 0-52.379-24.301-52.379-54.268 0-29.963 23.454-54.268 52.379-54.268 28.926 0 52.384 24.305 52.384 54.268h-52.384" fill="#faa61a" fill-rule="evenodd"/>
  <path id="path2908" d="m98.677 135.32h52.384c0 29.968-23.458 54.268-52.384 54.268-28.926 0-52.379-24.301-52.379-54.268 0-29.963 23.454-54.268 52.379-54.268 28.926 0 52.384 24.305 52.384 54.268h-52.384" fill="#faa819" fill-rule="evenodd"/>
  <path id="path2910" d="m98.677 135.32h52.384c0 29.968-23.458 54.268-52.384 54.268-28.926 0-52.379-24.301-52.379-54.268 0-29.963 23.454-54.268 52.379-54.268 28.926 0 52.384 24.305 52.384 54.268h-52.384" fill="#fba919" fill-rule="evenodd"/>
  <path id="path2912" d="m98.677 135.32h52.384c0 29.968-23.458 54.268-52.384 54.268-28.926 0-52.379-24.301-52.379-54.268 0-29.963 23.454-54.268 52.379-54.268 28.926 0 52.384 24.305 52.384 54.268h-52.384" fill="#fbab18" fill-rule="evenodd"/>
  <path id="path2914" d="m98.677 135.32h52.384c0 29.968-23.458 54.268-52.384 54.268-28.926 0-52.379-24.301-52.379-54.268 0-29.963 23.454-54.268 52.379-54.268 28.926 0 52.384 24.305 52.384 54.268h-52.384" fill="#fbad17" fill-rule="evenodd"/>
  <path id="path2916" d="m98.677 135.32h52.384c0 29.968-23.458 54.268-52.384 54.268-28.926 0-52.379-24.301-52.379-54.268 0-29.963 23.454-54.268 52.379-54.268 28.926 0 52.384 24.305 52.384 54.268h-52.384" fill="#fcaf17" fill-rule="evenodd"/>
  <path id="path2918" d="m98.677 135.32h52.384c0 29.968-23.458 54.268-52.384 54.268-28.926 0-52.379-24.301-52.379-54.268 0-29.963 23.454-54.268 52.379-54.268 28.926 0 52.384 24.305 52.384 54.268h-52.384" fill="#fcb116" fill-rule="evenodd"/>
  <path id="path2920" d="m98.677 135.32h52.384c0 29.968-23.458 54.268-52.384 54.268-28.926 0-52.379-24.301-52.379-54.268 0-29.963 23.454-54.268 52.379-54.268 28.926 0 52.384 24.305 52.384 54.268h-52.384" fill="#fcb315" fill-rule="evenodd"/>
  <path id="path2922" d="m98.677 135.32h52.384c0 29.968-23.458 54.268-52.384 54.268-28.926 0-52.379-24.301-52.379-54.268 0-29.963 23.454-54.268 52.379-54.268 28.926 0 52.384 24.305 52.384 54.268h-52.384" fill="#fcb315" fill-rule="evenodd"/>
  <path id="path2924" d="m98.677 135.32h52.384c0 29.968-23.458 54.268-52.384 54.268-28.926 0-52.379-24.301-52.379-54.268 0-29.963 23.454-54.268 52.379-54.268 28.926 0 52.384 24.305 52.384 54.268h-52.384" fill="#fdb714" fill-rule="evenodd"/>
  <path id="path2926" d="m98.677 135.32h52.384c0 29.968-23.458 54.268-52.384 54.268-28.926 0-52.379-24.301-52.379-54.268 0-29.963 23.454-54.268 52.379-54.268 28.926 0 52.384 24.305 52.384 54.268h-52.384" fill="#fdb714" fill-rule="evenodd"/>
  <path id="path2928" d="m98.677 135.32h52.384c0 29.968-23.458 54.268-52.384 54.268-28.926 0-52.379-24.301-52.379-54.268 0-29.963 23.454-54.268 52.379-54.268 28.926 0 52.384 24.305 52.384 54.268h-52.384" fill="#fdba12" fill-rule="evenodd"/>
  <path id="path2930" d="m98.677 135.32h52.384c0 29.968-23.458 54.268-52.384 54.268-28.926 0-52.379-24.301-52.379-54.268 0-29.963 23.454-54.268 52.379-54.268 28.926 0 52.384 24.305 52.384 54.268h-52.384" fill="#fdba12" fill-rule="evenodd"/>
  <path id="path2932" d="m98.677 135.32h52.384c0 29.968-23.458 54.268-52.384 54.268-28.926 0-52.379-24.301-52.379-54.268 0-29.963 23.454-54.268 52.379-54.268 28.926 0 52.384 24.305 52.384 54.268h-52.384" fill="#febc11" fill-rule="evenodd"/>
  <path id="path2934" d="m98.677 135.32h52.384c0 29.968-23.458 54.268-52.384 54.268-28.926 0-52.379-24.301-52.379-54.268 0-29.963 23.454-54.268 52.379-54.268 28.926 0 52.384 24.305 52.384 54.268h-52.384" fill="#febe10" fill-rule="evenodd"/>
  <path id="path2936" d="m98.677 135.32h52.384c0 19.077-9.5074 35.852-23.879 45.533-8.2436 5.2636-18.022 8.3101-28.504 8.3101-10.487 0-20.265-3.0509-28.518-8.319-14.363-9.6804-23.862-26.451-23.862-45.524 0-19.077 9.5074-35.857 23.884-45.533 8.2436-5.2592 18.017-8.3101 28.496-8.3101 10.479 0 20.252 3.0509 28.496 8.3101 14.376 9.6759 23.888 26.456 23.888 45.533h-52.384" fill="#fec00e" fill-rule="evenodd"/>
  <path id="path2938" d="m98.677 135.32h52.384c0 10.762-3.0243 20.793-8.2436 29.227-9.4364 14.469-25.68 24.026-44.14 24.026-18.456 0-34.699-9.5517-44.136-24.021-5.2193-8.4387-8.2436-18.469-8.2436-29.232 0-10.758 3.0243-20.784 8.2391-29.223 9.4364-14.47 25.68-24.026 44.14-24.026 18.46 0 34.699 9.5517 44.14 24.021 5.2193 8.4342 8.2436 18.465 8.2436 29.227h-52.384" fill="#ffc20d" fill-rule="evenodd"/>
  <path id="path2940" d="m98.677 135.32h52.22c0-29.081-23.383-52.659-52.22-52.659-28.837 0-52.215 23.578-52.215 52.659 0 29.085 23.378 52.659 52.215 52.659 28.837 0 52.22-23.573 52.22-52.659h-52.22" fill="#ffc20d" fill-rule="evenodd"/>
  <path id="path2942" d="m98.677 135.32h51.63c0-28.753-23.117-52.065-51.63-52.065-28.513 0-51.63 23.312-51.63 52.065 0 28.757 23.117 52.069 51.63 52.069 28.513 0 51.63-23.312 51.63-52.069h-51.63" fill="#ffc40c" fill-rule="evenodd"/>
  <path id="path2944" d="m98.677 135.32h51.045c0-28.429-22.855-51.475-51.045-51.475-28.19 0-51.04 23.046-51.04 51.475 0 28.433 22.851 51.479 51.04 51.479 28.19 0 51.045-23.046 51.045-51.479h-51.045" fill="#ffc40c" fill-rule="evenodd"/>
  <path id="path2946" d="m98.677 135.32h50.459c0-28.101-22.593-50.88-50.459-50.88-27.866 0-50.455 22.78-50.455 50.88 0 28.105 22.589 50.885 50.455 50.885 27.866 0 50.459-22.78 50.459-50.885h-50.459" fill="#ffc40c" fill-rule="evenodd"/>
  <path id="path2948" d="m98.677 135.32h49.869c0-27.773-22.327-50.291-49.869-50.291-27.542 0-49.869 22.518-49.869 50.291 0 27.777 22.327 50.295 49.869 50.295 27.542 0 49.869-22.518 49.869-50.295h-49.869" fill="#ffc40c" fill-rule="evenodd"/>
  <path id="path2950" d="m98.677 135.32h49.284c0-27.449-22.066-49.697-49.284-49.697-27.218 0-49.28 22.252-49.28 49.697 0 27.449 22.061 49.701 49.28 49.701 27.218 0 49.284-22.252 49.284-49.701h-49.284" fill="#ffc40c" fill-rule="evenodd"/>
  <path id="path2952" d="m98.677 135.32h48.699c0-27.121-21.804-49.107-48.699-49.107-26.895 0-48.694 21.986-48.694 49.107 0 27.125 21.8 49.111 48.694 49.111 26.895 0 48.699-21.986 48.699-49.111h-48.699" fill="#ffc50a" fill-rule="evenodd"/>
  <path id="path2954" d="m98.677 135.32h48.109c0-26.793-21.538-48.513-48.109-48.513-26.567 0-48.109 21.72-48.109 48.513 0 26.797 21.542 48.517 48.109 48.517 26.571 0 48.109-21.72 48.109-48.517h-48.109" fill="#ffc50a" fill-rule="evenodd"/>
  <path id="path2956" d="m98.677 135.32h47.524c0-26.469-21.276-47.923-47.524-47.923-26.243 0-47.524 21.458-47.524 47.923 0 26.469 21.281 47.927 47.524 47.927 26.247 0 47.524-21.458 47.524-47.927h-47.524" fill="#ffc50a" fill-rule="evenodd"/>
  <path id="path2958" d="m98.677 135.32h46.938c0-26.141-21.015-47.333-46.938-47.333-25.919 0-46.934 21.192-46.934 47.333 0 26.145 21.015 47.337 46.934 47.337 25.924-4e-3 46.938-21.192 46.938-47.337h-46.938" fill="#ffc708" fill-rule="evenodd"/>
  <path id="path2960" d="m98.677 135.32h46.353c0-25.813-20.753-46.739-46.353-46.739-25.595 0-46.349 20.926-46.349 46.739 0 25.817 20.753 46.743 46.349 46.743 25.6 0 46.353-20.926 46.353-46.743h-46.353" fill="#ffc708" fill-rule="evenodd"/>
  <path id="path2962" d="m98.677 135.32h45.763c0-25.485-20.487-46.149-45.763-46.149-25.272 0-45.763 20.664-45.763 46.149 0.0043 25.489 20.491 46.153 45.763 46.153 25.276-4e-3 45.763-20.664 45.763-46.153h-45.763" fill="#ffc708" fill-rule="evenodd"/>
  <path id="path2964" d="m98.677 135.32h45.178c0-25.161-20.225-45.559-45.178-45.559-24.948 0-45.173 20.398-45.173 45.559 0 25.161 20.225 45.559 45.173 45.559 24.952 0 45.178-20.394 45.178-45.559h-45.178" fill="#ffc708" fill-rule="evenodd"/>
  <path id="path2966" d="m98.677 135.32h44.592c0-24.833-19.964-44.965-44.592-44.965-24.624 0-44.588 20.132-44.588 44.965 0 24.837 19.964 44.969 44.588 44.969 24.629 0 44.592-20.132 44.592-44.969h-44.592" fill="#ffc907" fill-rule="evenodd"/>
  <path id="path2968" d="m98.677 135.32h44.003c0-24.505-19.702-44.375-44.003-44.375-24.301 0-44.003 19.871-44.003 44.375 0 24.509 19.702 44.375 44.003 44.375 24.301 0 44.003-19.866 44.003-44.375h-44.003" fill="#ffc907" fill-rule="evenodd"/>
  <path id="path2970" d="m98.677 135.32h43.417c0-24.181-19.44-43.781-43.417-43.781-23.977 0-43.413 19.6-43.413 43.781 0 24.181 19.436 43.785 43.413 43.785 23.977 0 43.417-19.605 43.417-43.785h-43.417" fill="#ffc907" fill-rule="evenodd"/>
  <path id="path2972" d="m98.677 135.32h42.832c0-23.853-19.174-43.191-42.832-43.191-23.653 0-42.828 19.338-42.828 43.191 0 23.857 19.174 43.196 42.828 43.196 23.658 0 42.832-19.338 42.832-43.196h-42.832" fill="#ffcb04" fill-rule="evenodd"/>
  <path id="path2974" d="m98.677 135.32h42.242c0-23.525-18.913-42.597-42.242-42.597-23.329-0.0039-42.242 19.072-42.242 42.597 0 23.529 18.913 42.601 42.242 42.601 23.329 0 42.242-19.072 42.242-42.601h-42.242" fill="#ffcb04" fill-rule="evenodd"/>
  <path id="path2976" d="m98.677 135.32h41.657c0-23.201-18.651-42.007-41.657-42.007-23.006 0-41.652 18.806-41.652 42.007 0 23.201 18.647 42.012 41.652 42.012 23.006 0 41.657-18.811 41.657-42.012h-41.657" fill="#ffcb04" fill-rule="evenodd"/>
  <path id="path2978" d="m98.677 135.32h41.072c0-22.873-18.39-41.413-41.072-41.413-22.682 0-41.067 18.54-41.067 41.413 0 22.877 18.385 41.417 41.067 41.417 22.682 0 41.072-18.54 41.072-41.417h-41.072" fill="#ffcb04" fill-rule="evenodd"/>
  <path id="path2980" d="m98.677 135.32h40.482c0-22.545-18.123-40.823-40.482-40.823-22.358 0-40.482 18.279-40.482 40.823 0 22.549 18.123 40.828 40.482 40.828 22.358 0 40.482-18.279 40.482-40.828h-40.482" fill="#ffcd02" fill-rule="evenodd"/>
  <path id="path2982" d="m98.677 135.32h39.896c0-22.216-17.862-40.233-39.896-40.233-22.03 0-39.892 18.017-39.892 40.233 0 22.221 17.862 40.238 39.892 40.238 22.035-4e-3 39.896-18.017 39.896-40.238h-39.896" fill="#ffcd02" fill-rule="evenodd"/>
  <path id="path2984" d="m98.677 135.32h39.311c0-21.893-17.6-39.639-39.311-39.639-21.706 0-39.307 17.747-39.307 39.639 0 21.897 17.6 39.644 39.307 39.644 21.711 0 39.311-17.747 39.311-39.644h-39.311" fill="#ffcd02" fill-rule="evenodd"/>
  <path id="path2986" d="m98.677 135.32h38.726c0-21.565-17.339-39.049-38.726-39.049-21.383 0-38.721 17.485-38.721 39.049 0 21.569 17.339 39.054 38.721 39.054 21.387-4e-3 38.721-17.485 38.721-39.054h-38.721" fill="#ffcf00" fill-rule="evenodd"/>
  <path id="path2988" d="m98.677 135.32h38.136c0-21.236-17.072-38.455-38.136-38.455-21.059 0-38.136 17.219-38.136 38.455 0 21.241 17.077 38.46 38.136 38.46 21.063 0 38.136-17.219 38.136-38.46h-38.136" fill="#ffcf00" fill-rule="evenodd"/>
  <path id="path2990" d="m98.677 135.32h37.551c0-20.913-16.811-37.865-37.551-37.865-20.735 0-37.546 16.953-37.546 37.865s16.811 37.87 37.546 37.87c20.74 0 37.551-16.953 37.551-37.87h-37.551" fill="#ffcf00" fill-rule="evenodd"/>
  <path id="path2992" d="m98.677 135.32h36.965c0-20.585-16.549-37.276-36.965-37.276-20.412 0-36.961 16.691-36.961 37.276 0 20.589 16.549 37.276 36.961 37.276 20.416 0 36.961-16.687 36.961-37.276h-36.961" fill="#ffcf00" fill-rule="evenodd"/>
  <path id="path2994" d="m98.677 135.32h36.376c0-20.256-16.283-36.681-36.376-36.681-20.088 0-36.376 16.425-36.376 36.681 0 20.261 16.288 36.686 36.376 36.686 20.092 0 36.376-16.425 36.376-36.686h-36.376" fill="#ffcf00" fill-rule="evenodd"/>
  <path id="path2996" d="m98.677 135.32h35.79c0-19.933-16.026-36.092-35.79-36.092-19.764 0-35.786 16.163-35.786 36.092 0 19.933 16.022 36.092 35.786 36.092 19.769 0 35.79-16.155 35.79-36.092h-35.79" fill="#ffd100" fill-rule="evenodd"/>
  <path id="path2998" d="m98.677 135.32h35.205c0-19.605-15.764-35.498-35.205-35.498-19.44 0-35.2 15.893-35.2 35.498 0 19.609 15.76 35.502 35.2 35.502 19.44 0 35.205-15.893 35.205-35.502h-35.205" fill="#ffd100" fill-rule="evenodd"/>
  <path id="path3000" d="m98.677 135.32h34.615c0-19.281-15.494-34.908-34.615-34.908-19.117 0-34.615 15.631-34.615 34.908 0 19.281 15.498 34.912 34.615 34.912 19.121-4e-3 34.615-15.631 34.615-34.912h-34.615" fill="#ffd100" fill-rule="evenodd"/>
  <path id="path3002" d="m98.677 135.32h34.03c0-18.948-15.237-34.314-34.03-34.314-18.793 0-34.025 15.365-34.025 34.314 0 18.953 15.232 34.318 34.025 34.318 18.793 0 34.03-15.365 34.03-34.318h-34.03" fill="#ffd200" fill-rule="evenodd"/>
  <path id="path3004" d="m98.677 135.32h33.444c0-18.625-14.975-33.724-33.444-33.724-18.469 0-33.44 15.099-33.44 33.724 0 18.629 14.971 33.728 33.44 33.728 18.469 0 33.444-15.099 33.444-33.728h-33.444" fill="#ffd200" fill-rule="evenodd"/>
  <path id="path3006" d="m98.677 135.32h32.855c0-18.296-14.709-33.13-32.855-33.13-18.146 0-32.855 14.833-32.855 33.13 0 18.301 14.709 33.134 32.855 33.134 18.146 0 32.855-14.833 32.855-33.134h-32.855" fill="#ffd200" fill-rule="evenodd"/>
  <path id="path3008" d="m98.677 135.32h32.269c0-17.973-14.447-32.54-32.269-32.54-17.822 0-32.269 14.567-32.269 32.54 0 17.973 14.447 32.544 32.269 32.544 17.822 0 32.269-14.571 32.269-32.544h-32.269" fill="#ffd200" fill-rule="evenodd"/>
  <path id="path3010" d="m98.677 135.32h31.684c0-17.645-14.186-31.946-31.684-31.946-17.494-4e-3 -31.679 14.301-31.679 31.946 0 17.644 14.181 31.954 31.679 31.954 17.498-4e-3 31.684-14.305 31.684-31.954h-31.684" fill="#ffd400" fill-rule="evenodd"/>
  <path id="path3012" d="m98.677 135.32h31.094c0-17.316-13.92-31.356-31.094-31.356-17.17 0-31.094 14.039-31.094 31.356 0 17.321 13.924 31.36 31.094 31.36 17.174 0 31.094-14.039 31.094-31.36h-31.094" fill="#ffd400" fill-rule="evenodd"/>
  <path id="path3014" d="m98.677 135.32h30.509c0-16.993-13.658-30.766-30.509-30.766-16.846 0-30.509 13.773-30.509 30.766 0 16.993 13.662 30.77 30.509 30.77 16.851-4e-3 30.509-13.778 30.509-30.77h-30.509" fill="#ffd400" fill-rule="evenodd"/>
  <path id="path3016" d="m98.677 135.32h29.923c0-16.665-13.396-30.172-29.923-30.172-16.523 0-29.919 13.507-29.919 30.172 0 16.665 13.396 30.176 29.919 30.176 16.527 0 29.923-13.512 29.923-30.176h-29.923" fill="#ffd400" fill-rule="evenodd"/>
  <path id="path3018" d="m98.677 135.32h29.338c0-16.336-13.135-29.582-29.338-29.582-16.199 0-29.334 13.246-29.334 29.582 0 16.341 13.135 29.586 29.334 29.586 16.203 0 29.338-13.246 29.338-29.586h-29.338" fill="#ffd400" fill-rule="evenodd"/>
  <path id="path3020" d="m98.677 135.32h28.748c0-16.013-12.869-28.988-28.748-28.988-15.875 0-28.748 12.98-28.748 28.988 0 16.013 12.873 28.992 28.748 28.992 15.88 0 28.748-12.98 28.748-28.992h-28.748" fill="#ffd600" fill-rule="evenodd"/>
  <path id="path3022" d="m98.677 135.32h28.163c0-15.685-12.607-28.398-28.163-28.398-15.551 0-28.159 12.713-28.159 28.398 0 15.684 12.607 28.402 28.159 28.402 15.556 0 28.163-12.718 28.163-28.402h-28.163" fill="#ffd600" fill-rule="evenodd"/>
  <path id="path3024" d="m98.677 135.32h27.578c0-15.356-12.35-27.808-27.578-27.808-15.228 0-27.573 12.452-27.573 27.808 0 15.361 12.345 27.808 27.573 27.808 15.232 0 27.578-12.447 27.578-27.808h-27.578" fill="#ffd600" fill-rule="evenodd"/>
  <path id="path3026" d="m98.677 135.32h26.988c0-15.028-12.084-27.214-26.988-27.214-14.904-4e-3 -26.988 12.186-26.988 27.214 0 15.033 12.084 27.218 26.988 27.218 14.904 0 26.988-12.186 26.988-27.218h-26.988" fill="#ffd800" fill-rule="evenodd"/>
  <path id="path3028" d="m98.677 135.32h26.403c0-14.705-11.818-26.624-26.403-26.624-14.58 0-26.398 11.92-26.398 26.624 0 14.709 11.818 26.629 26.398 26.629 14.585 0 26.403-11.92 26.403-26.629h-26.403" fill="#ffd800" fill-rule="evenodd"/>
  <path id="path3030" d="m98.677 135.32h25.817c0-14.376-11.561-26.03-25.817-26.03-14.257 0-25.813 11.654-25.813 26.03 0 14.376 11.556 26.034 25.813 26.034 14.257 0 25.817-11.654 25.817-26.034h-25.817" fill="#ffd803" fill-rule="evenodd"/>
  <path id="path3032" d="m98.677 135.32h25.227c0-14.048-11.294-25.44-25.227-25.44-13.933 0-25.227 11.392-25.227 25.44 0 14.053 11.294 25.445 25.227 25.445 13.933 0 25.227-11.392 25.227-25.445h-25.227" fill="#ffd80d" fill-rule="evenodd"/>
  <path id="path3034" d="m98.677 135.32h24.642c0-13.725-11.033-24.846-24.642-24.846-13.609-4e-3 -24.638 11.126-24.638 24.846 0 13.724 11.028 24.85 24.638 24.85 13.609 0 24.642-11.126 24.642-24.85h-24.642" fill="#ffd919" fill-rule="evenodd"/>
  <path id="path3036" d="m98.677 135.32h24.057c0-13.396-10.771-24.256-24.057-24.256-13.286 0-24.052 10.86-24.052 24.256 0 13.401 10.767 24.261 24.052 24.261 13.285 0 24.057-10.86 24.057-24.261h-24.057" fill="#ffd91d" fill-rule="evenodd"/>
  <path id="path3038" d="m98.677 135.32h23.471c0-13.068-10.51-23.666-23.471-23.666-12.962 0-23.467 10.598-23.467 23.666 0 13.073 10.505 23.671 23.467 23.671 12.962-4e-3 23.471-10.598 23.471-23.671h-23.471" fill="#ffdc26" fill-rule="evenodd"/>
  <path id="path3040" d="m98.677 135.32h22.882c0-12.745-10.244-23.072-22.882-23.072-12.634 0-22.877 10.332-22.877 23.072 0 12.744 10.244 23.077 22.877 23.077 12.638 0 22.882-10.332 22.882-23.077h-22.882" fill="#ffdc2b" fill-rule="evenodd"/>
  <path id="path3042" d="m98.677 135.32h22.296c0-12.416-9.9819-22.482-22.296-22.482-12.31 0-22.292 10.066-22.292 22.482 0 12.416 9.9819 22.487 22.292 22.487 12.314 0 22.296-10.066 22.296-22.487h-22.296" fill="#ffdc32" fill-rule="evenodd"/>
  <path id="path3044" d="m98.677 135.32h21.711c0-12.088-9.7202-21.888-21.711-21.888-11.986 0-21.706 9.8001-21.706 21.888 0 12.093 9.7202 21.893 21.706 21.893 11.991 0 21.711-9.8001 21.711-21.893h-21.711" fill="#ffdc39" fill-rule="evenodd"/>
  <path id="path3046" d="m98.677 135.32h21.121c0-11.76-9.4542-21.299-21.121-21.299-11.663 0-21.121 9.5384-21.121 21.299 0 11.764 9.4586 21.303 21.121 21.303 11.667 0 21.121-9.5384 21.121-21.303h-21.121" fill="#ffdc3d" fill-rule="evenodd"/>
  <path id="path3048" d="m98.677 135.32h20.536c0-11.436-9.1925-20.709-20.536-20.709-11.339 0-20.531 9.2723-20.531 20.709 0 11.441 9.1925 20.709 20.531 20.709 11.343 0 20.536-9.2679 20.536-20.709h-20.536" fill="#ffde43" fill-rule="evenodd"/>
  <path id="path3050" d="m98.677 135.32h19.95c0-11.108-8.9309-20.115-19.95-20.115-11.015 0-19.946 9.0063-19.946 20.115 0 11.113 8.9309 20.119 19.946 20.119 11.019 0 19.95-9.0063 19.95-20.119h-19.95" fill="#ffde46" fill-rule="evenodd"/>
  <path id="path3052" d="m98.677 135.32h19.361c0-10.78-8.6648-19.525-19.361-19.525-10.691 0-19.361 8.7447-19.361 19.525 0 10.784 8.6693 19.525 19.361 19.525 10.696 0 19.361-8.7402 19.361-19.525h-19.361" fill="#ffe04c" fill-rule="evenodd"/>
  <path id="path3054" d="m98.677 135.32h18.775c0-10.456-8.4076-18.931-18.775-18.931-10.368 0-18.771 8.4742-18.771 18.931 0 10.456 8.4032 18.935 18.771 18.935 10.368 0 18.775-8.4786 18.775-18.935h-18.775" fill="#ffe04f" fill-rule="evenodd"/>
  <path id="path3056" d="m98.677 135.32h18.19c0-10.128-8.146-18.341-18.19-18.341-10.044 0-18.186 8.2125-18.186 18.341 0 10.133 8.1416 18.345 18.186 18.345 10.044 0 18.19-8.2125 18.19-18.345h-18.19" fill="#ffe155" fill-rule="evenodd"/>
  <path id="path3058" d="m98.677 135.32h17.6c0-9.8045-7.8799-17.747-17.6-17.747-9.7202 0-17.6 7.9465-17.6 17.747 0 9.8044 7.88 17.751 17.6 17.751 9.7202 0 17.6-7.9465 17.6-17.751h-17.6" fill="#ffe15a" fill-rule="evenodd"/>
  <path id="path3060" d="m98.677 135.32h17.015c0-9.4764-7.6184-17.157-17.015-17.157-9.3965 0-17.015 7.6804-17.015 17.157 0 9.4763 7.6183 17.161 17.015 17.161 9.3965 0 17.015-7.6849 17.015-17.161h-17.015" fill="#ffe35e" fill-rule="evenodd"/>
  <path id="path3062" d="m98.677 135.32h16.429c0-9.1482-7.3567-16.563-16.429-16.563-9.0728-4e-3 -16.425 7.4143-16.425 16.563 0 9.1526 7.3523 16.567 16.425 16.567 9.0728 0 16.429-7.4143 16.429-16.567h-16.429" fill="#ffe360" fill-rule="evenodd"/>
  <path id="path3064" d="m98.677 135.32h15.84c0-8.8201-7.0907-15.973-15.84-15.973-8.7491 0-15.84 7.1527-15.84 15.973 0 8.8245 7.0906 15.977 15.84 15.977 8.7491 0 15.84-7.1527 15.84-15.977h-15.84" fill="#ffe365" fill-rule="evenodd"/>
  <path id="path3066" d="m98.677 135.32h15.254c0-8.4964-6.829-15.379-15.254-15.379-8.4254-4e-3 -15.254 6.8866-15.254 15.379 0 8.4963 6.829 15.387 15.254 15.387 8.4254-4e-3 15.254-6.8911 15.254-15.387h-15.254" fill="#ffe568" fill-rule="evenodd"/>
  <path id="path3068" d="m98.677 135.32h14.669c0-8.1682-6.5674-14.789-14.669-14.789-8.0972 0-14.665 6.6206-14.665 14.789 0 8.1726 6.5674 14.793 14.665 14.793 8.1017 0 14.669-6.6206 14.669-14.793h-14.669" fill="#ffe56d" fill-rule="evenodd"/>
  <path id="path3070" d="m98.677 135.32h14.084c0-7.84-6.3057-14.199-14.084-14.199-7.7735 0-14.079 6.359-14.079 14.199 0 7.8444 6.3057 14.203 14.079 14.203 7.778 0 14.084-6.359 14.084-14.203h-14.084" fill="#ffe572" fill-rule="evenodd"/>
  <path id="path3072" d="m98.677 135.32h13.494c0-7.5164-6.0397-13.605-13.494-13.605-7.4498 0-13.494 6.0929-13.494 13.605 0 7.5163 6.0441 13.609 13.494 13.609 7.4542 0 13.494-6.0929 13.494-13.609h-13.494" fill="#ffe674" fill-rule="evenodd"/>
  <path id="path3074" d="m98.677 135.32h12.909c0-7.1882-5.778-13.015-12.909-13.015-7.1261 0-12.904 5.8268-12.904 13.015 0 7.1926 5.778 13.019 12.904 13.019 7.1306 0 12.909-5.8268 12.909-13.019h-12.909" fill="#ffe879" fill-rule="evenodd"/>
  <path id="path3076" d="m98.677 135.32h12.323c0-6.8601-5.5164-12.425-12.323-12.425-6.8024 0-12.319 5.5652-12.319 12.425 0 6.8645 5.5164 12.425 12.319 12.425 6.8068 0 12.323-5.5608 12.323-12.425h-12.323" fill="#ffe87b" fill-rule="evenodd"/>
  <path id="path3078" d="m98.677 135.32h11.733c0-6.5319-5.2504-11.831-11.733-11.831-6.4787 0-11.733 5.2991-11.733 11.831 0 6.5363 5.2548 11.835 11.733 11.835 6.4831 0 11.733-5.2991 11.733-11.835h-11.733" fill="#ffe87f" fill-rule="evenodd"/>
  <path id="path3080" d="m98.677 135.32h11.148c0-6.2082-4.9887-11.241-11.148-11.241-6.155 0-11.148 5.0331-11.148 11.241 0 6.2082 4.9932 11.246 11.148 11.246 6.1594 0 11.148-5.0331 11.148-11.246h-11.148" fill="#ffea82" fill-rule="evenodd"/>
  <path id="path3082" d="m98.677 135.32h10.563c0-5.88-4.7271-10.647-10.563-10.647-5.8313 0-10.558 4.767-10.558 10.647 0 5.8844 4.7271 10.651 10.558 10.651 5.8357 0 10.563-4.767 10.563-10.651h-10.563" fill="#ffea85" fill-rule="evenodd"/>
  <path id="path3084" d="m98.677 135.32h9.973c0-5.5519-4.461-10.057-9.973-10.057-5.5075 0-9.973 4.5054-9.973 10.057 0 5.5563 4.4655 10.062 9.973 10.062 5.5119 0 9.973-4.5054 9.973-10.062h-9.973" fill="#ffea89" fill-rule="evenodd"/>
  <path id="path3086" d="m98.677 135.32h9.3877c0-5.2282-4.2038-9.463-9.3877-9.463-5.1838-4e-3 -9.3877 4.2348-9.3877 9.463 0 5.2282 4.2038 9.4674 9.3877 9.4674 5.1838 0 9.3877-4.2348 9.3877-9.4674h-9.3877" fill="#ffea8c" fill-rule="evenodd"/>
  <path id="path3088" d="m98.677 135.32h8.8023c0-4.9001-3.9422-8.8733-8.8023-8.8733-4.8601 0-8.7979 3.9732-8.7979 8.8733 0 4.9044 3.9378 8.8777 8.7979 8.8777 4.8601 0 8.8023-3.9732 8.8023-8.8777h-8.8023" fill="#ffed90" fill-rule="evenodd"/>
  <path id="path3090" d="m98.677 135.32h8.217c0-4.5719-3.6806-8.2791-8.217-8.2791-4.5364-4e-3 -8.2125 3.7072-8.2125 8.2791 0 4.5763 3.6761 8.2835 8.2125 8.2835 4.5364 0 8.217-3.7072 8.217-8.2835h-8.217" fill="#ffed92" fill-rule="evenodd"/>
  <path id="path3092" d="m98.677 135.32h7.6272c0-4.2482-3.4145-7.6893-7.6272-7.6893-4.2127 0-7.6272 3.4411-7.6272 7.6893 0 4.2482 3.4145 7.6937 7.6272 7.6937 4.2127 0 7.6272-3.4455 7.6272-7.6937h-7.6272" fill="#ffed96" fill-rule="evenodd"/>
  <path id="path3094" d="m98.677 135.32h7.0418c0-3.92-3.1528-7.0995-7.0418-7.0995-3.889 0-7.0374 3.1795-7.0374 7.0995 0 3.9244 3.1484 7.0995 7.0374 7.0995 3.889 0 7.0418-3.175 7.0418-7.0995h-7.0418" fill="#ffed98" fill-rule="evenodd"/>
  <path id="path3096" d="m98.677 135.32h6.4565c0-3.5919-2.8912-6.5053-6.4565-6.5053-3.5608 0-6.4521 2.9134-6.4521 6.5053 0 3.5963 2.8912 6.5097 6.4521 6.5097 3.5653 0 6.4565-2.9134 6.4565-6.5097h-6.4565" fill="#ffef9c" fill-rule="evenodd"/>
  <path id="path3098" d="m98.677 135.32h5.8667c0-3.2682-2.6252-5.9155-5.8667-5.9155-3.2371 0-5.8667 2.6473-5.8667 5.9155 0 3.2681 2.6296 5.9199 5.8667 5.9199 3.2415 0 5.8667-2.6518 5.8667-5.9199h-5.8667" fill="#ffefa0" fill-rule="evenodd"/>
  <path id="path3100" d="m98.677 135.32h5.2814c0-2.94-2.3636-5.3213-5.2814-5.3213-2.9134 0-5.2814 2.3813-5.2814 5.3213 0 2.94 2.368 5.3257 5.2814 5.3257 2.9178 0 5.2814-2.3857 5.2814-5.3257h-5.2814" fill="#fff0a2" fill-rule="evenodd"/>
  <path id="path3102" d="m98.677 135.32h4.696c0-2.6119-2.1019-4.7316-4.696-4.7316-2.5897 0-4.6916 2.1197-4.6916 4.7316 0 2.6163 2.1019 4.736 4.6916 4.736 2.5941 0 4.696-2.1197 4.696-4.736h-4.696" fill="#fff2a7" fill-rule="evenodd"/>
  <path id="path3104" d="m98.677 135.32h4.1063c0-2.2882-1.8359-4.1418-4.1063-4.1418-2.266 0-4.1063 1.858-4.1063 4.1418 0 2.2882 1.8403 4.1417 4.1063 4.1417 2.2704 0 4.1063-1.8536 4.1063-4.1417h-4.1063" fill="#fff3a9" fill-rule="evenodd"/>
  <path id="path3106" d="m98.677 135.32h3.5209c0-1.96-1.5742-3.5476-3.5209-3.5476-1.9423 0-3.5209 1.5875-3.5209 3.5476 0 1.9644 1.5786 3.5519 3.5209 3.5519 1.9467 0 3.5209-1.5875 3.5209-3.5519h-3.5209" fill="#fff3ae" fill-rule="evenodd"/>
  <path id="path3108" d="m98.677 135.32h2.9356c0-1.6319-1.3126-2.9578-2.9356-2.9578-1.6186 0-2.9311 1.3259-2.9311 2.9578 0 1.6363 1.3126 2.9577 2.9311 2.9577 1.623 0 2.9356-1.3214 2.9356-2.9577h-2.9356" fill="#fff3af" fill-rule="evenodd"/>
  <path id="path3110" d="m98.677 135.32h2.3458c0-1.3082-1.0465-2.3636-2.3458-2.3636-1.2948 0-2.3458 1.0598-2.3458 2.3636 0 1.3081 1.051 2.368 2.3458 2.368 1.2993 0 2.3458-1.0598 2.3458-2.368h-2.3458" fill="#fff5b4" fill-rule="evenodd"/>
  <path id="path3112" d="m98.677 135.32h1.7605c0-0.98003-0.7849-1.7738-1.7605-1.7738-0.97114 0-1.7605 0.79375-1.7605 1.7738 0 0.97997 0.78933 1.7782 1.7605 1.7782 0.97557 0 1.7605-0.79375 1.7605-1.7782h-1.7605" fill="#fff5b6" fill-rule="evenodd"/>
  <path id="path3114" d="m98.677 135.32h1.1751c0-0.6519-0.5277-1.1796-1.1751-1.1796-0.64742-4e-3 -1.1751 0.52766-1.1751 1.1796 0 0.65629 0.5277 1.184 1.1751 1.184 0.64742 0 1.1751-0.52766 1.1751-1.184h-1.1751" fill="#fffabc" fill-rule="evenodd"/>
  <path id="path3116" d="m98.677 135.32h0.58534c0-0.32399-0.26165-0.58981-0.58534-0.58981-0.32373 0-0.58534 0.26606-0.58534 0.58981 0 0.32832 0.26165 0.5942 0.58534 0.5942s0.58534-0.26606 0.58534-0.5942h-0.58534" fill="#fffac0" fill-rule="evenodd"/>
  <path id="path3118" d="m123.43 147.26c2.297 8.3589 17.179-4.053 26.979-3.3746-3.9644 25.897-25.618 45.706-51.732 45.706-13.019 0-24.935-4.9266-34.101-13.077-0.35475-1.3259-0.54543-2.6341-0.54543-3.9067 0-12.824 7.676-18.101 12.261-23.693 7.5962-0.55872 15.192 1.011 22.793 6.1417 8.3234-5.6184 16.647-6.9665 24.97-5.92l-0.62526-1.8757" fill="#231f20" fill-rule="evenodd"/>
  <path id="path3120" d="m123.43 147.26c2.297 8.3589 17.179-4.053 26.979-3.3746m-85.833 32.628c-0.35475-1.3259-0.54543-2.6341-0.54543-3.9067 0-12.824 7.676-18.101 12.261-23.693 7.5962-0.55872 15.192 1.011 22.793 6.1417 8.3234-5.6184 16.647-6.9665 24.97-5.92l-0.62523-1.8757" fill="none" stroke="#231f20" stroke-miterlimit="2.613" stroke-width=".43014"/>
  <path id="path3122" d="m48.151 149.66c7.8977-4e-3 16.008 1.2239 24.78 6.3146 2.1108-0.0709 4.1506 0.22589 6.0308 1.3303 6.2392-1.0332 11.694-0.9401 16.793-0.33703l0.36806 0.071c-2.3768 1.1396-4.7537 2.266-7.3301 2.6118 2.7006 4.2526 6.2215 3.4145 12 1.9068 3.3435-1.2948 6.6871-0.90017 9.1659 0.0887 2.1196 1.1663 4.3901 1.7871 6.8822 1.6939l-1.1884 1.0909 10.044 7.543 0.18172 0.23926c2.0088 2.8203-0.12895 5.2725-3.2238 3.6939l-10.598-7.1438 8.9797 6.5186c4.7005 4.1107 0.49219 7.0197-2.8912 4.5408l-7.002-5.0375 5.3568 4.3812c3.7826 3.3702 0.25303 6.257-2.7626 4.3059l-4.6428-2.6119 5.0331 4.7626-4.0264 1.7472-29.507-8.9708-5.7071-3.3214-6.5186-0.83366-4.0797-0.164-3.8402-1.6717c-5.7381-6.3413-10.017-14.115-12.297-22.744v-4e-3" fill="#ffeebc" fill-rule="evenodd"/>
  <g id="g3124" transform="matrix(4.4158 0 0 -4.4532 -315.56 3679.2)">
   <path id="path3126" d="m87.95 791.18-1.03-4.119m1.37-0.17 1.173 3.993" fill="none" stroke="#231f20" stroke-miterlimit="2.613" stroke-width=".225"/>
  </g>
  <g id="g3128" transform="matrix(4.393 0 0 -4.4762 -315.56 3679.2)">
   <path id="path3130" d="m82.793 788.5c1.798 2e-3 3.645-0.272 5.641-1.41 0.48 0.016 0.944-0.051 1.373-0.297 1.421 0.23 2.662 0.21 3.823 0.075l0.083-0.016c-0.541-0.255-1.082-0.506-1.668-0.583 0.615-0.95 1.416-0.763 2.732-0.426 0.76 0.289 1.522 0.201 2.086-0.02 0.483-0.261 0.999-0.4 1.566-0.379l-0.27-0.243 2.286-1.685 0.042-0.054c0.457-0.63-0.03-1.178-0.734-0.825l-2.412 1.595 2.044-1.456c1.069-0.918 0.112-1.567-0.659-1.014l-1.593 1.125 1.218-0.978c0.862-0.753 0.058-1.398-0.628-0.962l-1.057 0.583 1.146-1.063-0.917-0.391-6.717 2.004-1.298 0.742-1.485 0.186-0.928 0.037-0.875 0.373m-2.799 5.082v0" fill="none" stroke="#231f20" stroke-linecap="round" stroke-linejoin="round" stroke-miterlimit="2.613" stroke-width=".272"/>
  </g>
  <path id="path3132" d="m88.793 159.65c3.7116-0.50106 7.0108-2.6118 10.492-4.0663 3.5697-1.4057 7.1439-1.4501 10.718-0.88246l12.408 1.4944c8.7712-3.4722 19.059-8.4964 27.968-12.106-1.5875 10.088-5.8534 19.245-12.022 26.655l-3.1351-0.26173-6.288 1.0909-2.9622 0.60309-10.319-7.7469 1.1884-1.0909c-2.4921 0.0933-4.7626-0.52771-6.8822-1.694-2.4788-0.98889-5.8224-1.3835-9.1659-0.0887-5.778 1.5077-9.299 2.3458-12-1.9068" fill="#ffeebc" fill-rule="evenodd"/>
  <g id="g3134" transform="matrix(4.4158 0 0 -4.4532 -315.56 3679.2)">
   <path id="path3136" d="m100.56 791.68 1.383-3.8m-1.376-0.239-1.43 3.479" fill="none" stroke="#231f20" stroke-miterlimit="2.613" stroke-width=".225"/>
  </g>
  <g id="g3138" transform="matrix(4.4158 0 0 -4.4532 -315.56 3679.2)">
   <path id="path3140" d="m91.57 790.34c0.84 0.112 1.588 0.586 2.376 0.913 0.808 0.316 1.618 0.326 2.428 0.199l2.81-0.336c1.986 0.78 4.316 1.908 6.333 2.718m-2.722-5.985-0.711 0.059-1.423-0.245-0.671-0.136-2.337 1.74 0.269 0.245c-0.565-0.021-1.078 0.118-1.558 0.38-0.562 0.222-1.319 0.311-2.076 0.02-1.309-0.339-2.106-0.527-2.718 0.428" fill="none" stroke="#231f20" stroke-linecap="round" stroke-linejoin="round" stroke-miterlimit="2.613" stroke-width=".225"/>
  </g>
  <path id="path3142" d="m76.461 184.47 12.917-14.177c3.3391-3.889 9.4453-2.1951 5.2237 3.4987l-9.9242 13.827c-2.8425-0.81598-5.5918-1.8714-8.217-3.1485zm8.319 3.1795 9.3344-12.204 3.4899-4.7537c2.4788-3.6628 7.3124-4.4921 4.7803 2.0088-0.66516 1.7206-1.6274 3.2504-2.5542 4.8335l-6.8467 11.729c-2.807-0.31494-5.5475-0.86028-8.2037-1.6141zm8.2524 1.6186 8.5274-12.638 1.1485-1.6895c0.75829-1.1263 1.5698-2.8158 2.7627-3.5165 0.9401-0.54987 1.9157-0.3725 2.2172 0.62973 0.3991 1.3303-0.44344 2.807-0.92235 4.0042l-6.6029 13.481 5.5785-10.119c3.0154-5.0597 6.3811-2.4611 3.4145 4.7404l-1.796 4.6783c-2.8247 0.48779-5.7248 0.74498-8.6826 0.74498-1.9068 0-3.7914-0.10633-5.645-0.31493" fill="#ffeebc" fill-rule="evenodd"/>
  <g id="g3144" transform="matrix(4.4158 0 0 -4.4532 -315.56 3679.2)">
   <path id="path3146" d="m88.778 784.77 2.925 3.183c0.756 0.874 2.139 0.493 1.183-0.785l-2.248-3.106m0.023-6e-3 2.114 2.74 0.79 1.068c0.562 0.822 1.657 1.009 1.083-0.451-0.151-0.386-0.369-0.731-0.578-1.086l-1.551-2.634m0.012-1e-3 1.93 2.838 0.26 0.38c0.173 0.252 0.356 0.632 0.626 0.789 0.213 0.123 0.434 0.084 0.502-0.141 0.09-0.299-0.1-0.63-0.208-0.899l-1.496-3.028 1.264 2.273c0.683 1.136 1.444 0.553 0.773-1.065l-0.407-1.05" fill="none" stroke="#231f20" stroke-miterlimit="2.613" stroke-width=".225"/>
  </g>
  <path id="path3148" d="m79.188 139.78c-3.1307-0.75824-5.1351-0.23962-7.6449 0.40799-1.0953 0.2838-2.2882 0.5942-3.716 0.83811-1.4988 0.25738-3.0154 0.41684-4.5364 0.439-1.5254 0.0288-3.0553-0.084-4.5674-0.35475-0.79376-0.14626-1.5654-0.31495-2.3192-0.48333-3.175-0.70064-6.0929-1.3436-9.8222 0.38577-0.03993-0.42571-0.07983-0.85584-0.11088-1.2815 3.8712-1.6851 6.8999-1.0155 10.186-0.2925 0.73611 0.16434 1.4944 0.33232 2.2749 0.47448 1.4456 0.25737 2.8957 0.36361 4.3413 0.34172 1.4545-0.0288 2.909-0.17738 4.3546-0.42571 1.3747-0.23493 2.5498-0.5366 3.6274-0.81593 2.6651-0.69177 4.798-1.2416 8.2081-0.41684l-0.27493 1.184" fill="#231f20" fill-rule="evenodd"/>
  <path id="path3150" d="m79.228 144.71c-3.1307-0.75826-5.1395-0.23927-7.6449 0.40798h-0.0043c-1.0953 0.28379-2.2882 0.59421-3.716 0.83812-1.4988 0.25738-3.011 0.41683-4.532 0.43898-1.5299 0.0219-3.0553-0.0844-4.5674-0.35909-0.7982-0.1419-1.5653-0.31493-2.3236-0.47892-2.9932-0.6607-5.7559-1.2682-9.1881 0.11088-0.07541-0.40796-0.14636-0.81594-0.21285-1.2239 3.6229-1.4057 6.5186-0.76717 9.6537-0.0753 0.73611 0.16399 1.49 0.33232 2.2749 0.4745 1.4456 0.26136 2.9001 0.36362 4.3457 0.34135 1.4501-0.0254 2.909-0.17737 4.3546-0.42569 1.3702-0.23493 2.5409-0.53655 3.6185-0.81594v-4e-3c2.6695-0.68732 4.8025-1.2372 8.2125-0.40798l-0.27053 1.1798" fill="#231f20" fill-rule="evenodd"/>
  <path id="path3152" d="m79.263 149.63c-3.1307-0.75828-5.1351-0.2393-7.6449 0.40795-1.0953 0.28381-2.2837 0.59421-3.7205 0.83812-1.4944 0.25703-3.011 0.41685-4.5275 0.439-1.5299 0.029-3.0597-0.084-4.5719-0.35475-0.79376-0.14624-1.5609-0.31494-2.3148-0.48338-2.6961-0.5942-5.206-1.1485-8.1815-0.24362-0.11088-0.39464-0.21285-0.78932-0.31482-1.1884 3.2105-0.97557 5.88-0.38577 8.7491 0.24832 0.73611 0.15965 1.49 0.32834 2.2704 0.47006 1.4456 0.26172 2.9001 0.36362 4.3413 0.34135 1.4545-0.0254 2.909-0.17737 4.3546-0.42569 1.3702-0.23059 2.5409-0.53659 3.6229-0.81594 2.6695-0.69177 4.8025-1.2416 8.2125-0.41242l-0.27494 1.1796" fill="#231f20" fill-rule="evenodd"/>
  <path id="path3154" d="m118.06 135.42c3.3124-1.2948 5.4986-0.91793 8.2435-0.4479 1.0954 0.18607 2.2882 0.39023 3.6894 0.50111 1.4678 0.11517 2.9312 0.12427 4.3723-8e-3 1.4323-0.13285 2.8602-0.40355 4.2615-0.8514 0.7494-0.23928 1.4855-0.50552 2.2084-0.76717 3.184-1.1618 6.1195-2.2305 10.173-0.80706 0.018 0.43455 0.0254 0.87359 0.0362 1.3126-3.9112-1.5121-6.7403-0.48331-9.8089 0.63856-0.72723 0.26136-1.4678 0.53658-2.2527 0.78491-1.4767 0.4656-2.9844 0.75385-4.5098 0.89575-1.5254 0.14191-3.0509 0.13322-4.5674 0.0146-1.4367-0.11087-2.6695-0.32398-3.8003-0.51439-2.5586-0.43902-4.6074-0.78933-7.6183 0.38578l-0.42571-1.1352" fill="#231f20" fill-rule="evenodd"/>
  <path id="path3156" d="m118.61 140.86c3.3081-1.2904 5.4987-0.9179 8.2392-0.44785 1.0997 0.18642 2.2882 0.39465 3.6938 0.50107 1.4678 0.11517 2.9312 0.12427 4.3679-8e-3 1.4367-0.12856 2.8602-0.40353 4.2659-0.84696 0.7494-0.23927 1.4855-0.50998 2.2039-0.77159 3.0332-1.1086 5.8446-2.1285 9.605-0.9933-0.0217 0.42124-0.0489 0.83808-0.0801 1.2549-3.5653-1.1441-6.2348-0.16832-9.126 0.88247-0.72279 0.26606-1.4634 0.53654-2.2482 0.78488-1.4767 0.47004-2.9888 0.7583-4.5142 0.89574-1.521 0.1419-3.0464 0.1372-4.563 0.018-1.4412-0.11556-2.6695-0.32398-3.8003-0.51882-2.5631-0.43901-4.6118-0.78931-7.6228 0.38579l-0.42127-1.1352" fill="#231f20" fill-rule="evenodd"/>
  <path id="path3158" d="m119.14 146.29c3.3125-1.2904 5.5031-0.91794 8.2436-0.44789 1.0953 0.19077 2.2882 0.39469 3.6894 0.50556 1.4722 0.11517 2.9311 0.12426 4.3723-8e-3 1.4323-0.13321 2.8602-0.40797 4.2614-0.85142 0.75385-0.23964 1.49-0.50551 2.2084-0.77157 2.7449-0.99773 5.308-1.9334 8.5584-1.2594-0.0622 0.40797-0.12415 0.81594-0.19042 1.2195-3.0065-0.62082-5.4011 0.25305-7.9687 1.184-0.72723 0.26607-1.4678 0.53658-2.2527 0.78491-1.4766 0.47005-2.9843 0.75828-4.5097 0.90017-1.5254 0.13755-3.0509 0.13285-4.5674 0.0145-1.4368-0.11087-2.6651-0.32397-3.7959-0.51881-2.5631-0.43902-4.6118-0.78931-7.6228 0.38579l-0.42572-1.1352" fill="#231f20" fill-rule="evenodd"/>
  <path id="path3160" d="m130.96 115.47 0.0402-0.0146 0.0362 0.0146 0.0146-0.0326c1.4633-0.61195 2.8646-1.7206 3.011-3.1263 0.11543-2.1462-2.0842-4.0841-3.0553-7.2059l-4e-3 0.018-8e-3 -0.018c-0.9667 3.1218-3.1706 5.0597-3.0553 7.2059 0.15096 1.4057 1.5476 2.5143 3.0154 3.1263l8e-3 0.0326" fill="#71bf44" fill-rule="evenodd"/>
  <path id="path3162" d="m133.42 123.82 0.0362 0.0146 0.018 0.0402 0.0288-0.018c1.4545 0.58093 3.9688 0.50552 5.0153-0.54542 1.5299-1.6939 1.1485-5.2326 2.5587-8.5363l-0.0219 0.0146 0.0145-0.0254c-2.7937 1.8713-6.2171 2.2749-7.5784 4.1418-0.8381 1.2727-0.68291 3.2859-0.0533 4.8823l-0.0145 0.0362" fill="#71bf44" fill-rule="evenodd"/>
  <path id="path3164" d="m128.42 123.82-0.0362 0.0146-0.018 0.0402-0.0326-0.018c-1.45 0.58093-3.9644 0.50552-5.0109-0.54542-1.5254-1.6939-1.1485-5.2326-2.5586-8.5363l0.0219 0.0146-0.0145-0.0254c2.7892 1.8713 6.2171 2.2749 7.5784 4.1418 0.83814 1.2727 0.68291 3.2859 0.0533 4.8823l0.0146 0.0362" fill="#71bf44" fill-rule="evenodd"/>
  <path id="path3166" d="m133.42 132.92 0.0362 0.0145 0.018 0.0442 0.0288-0.0219c1.4545 0.5809 3.9688 0.50995 5.0153-0.54545 1.5299-1.6939 1.1485-5.2282 2.5587-8.5362l-0.0219 0.0146 0.0145-0.0218c-2.7937 1.8669-6.2171 2.2748-7.5784 4.1417-0.8381 1.2727-0.68291 3.2859-0.0533 4.8779l-0.0145 0.0362" fill="#71bf44" fill-rule="evenodd"/>
  <path id="path3168" d="m128.42 132.92-0.0362 0.0145-0.018 0.0442-0.0326-0.0219c-1.45 0.5809-3.9644 0.50995-5.0109-0.54545-1.5254-1.6939-1.1485-5.2282-2.5586-8.5362l0.0219 0.0146-0.0145-0.0218c2.7892 1.8669 6.2171 2.2748 7.5784 4.1417 0.83814 1.2727 0.68291 3.2859 0.0533 4.8779l0.0146 0.0362" fill="#71bf44" fill-rule="evenodd"/>
  <path id="path3170" d="m130.43 136.16h1.1924v-20.881h-1.1924z" fill="#71bf44"/>
  <path id="path3172" d="m130.81 124.13 3.991-2.1019 0.54546 1.082-3.991 2.0975-0.54543-1.0776" fill="#71bf44" fill-rule="evenodd"/>
  <path id="path3174" d="m130.81 125.21-3.9865-2.0975 0.54541-1.082 3.9866 2.1019-0.54543 1.0776" fill="#71bf44" fill-rule="evenodd"/>
  <path id="path3176" d="m130.81 133.3 3.991-2.1019 0.54546 1.082-3.991 2.1019-0.54543-1.082" fill="#71bf44" fill-rule="evenodd"/>
  <path id="path3178" d="m130.81 134.39-3.9865-2.1019 0.54541-1.082 3.9866 2.1019-0.54543 1.082" fill="#71bf44" fill-rule="evenodd"/>
  <path id="path3180" d="m80.195 130.98c7.0064-1.2993 13.219 0.47447 18.891 4.3413v19.729c-8.3278-5.6184-16.651-6.9665-24.975-5.92l6.084-18.15" fill="#a7a9ac" fill-rule="evenodd"/>
  <g id="g3182" transform="matrix(0 -4.43 -4.4388 0 -315.56 3679.2)">
   <path id="path3184" d="m800.93-89.158c0.294-1.579-0.106-2.978-0.98-4.256h-4.452c1.267 1.876 1.572 3.751 1.336 5.627l4.096-1.371" fill="none" stroke="#231f20" stroke-miterlimit="2.613" stroke-width=".601"/>
  </g>
  <path id="path3186" d="m117.97 130.98c-7.0064-1.2993-13.219 0.47447-18.886 4.3413v19.729c8.3234-5.6184 16.647-6.9665 24.97-5.92l-6.084-18.15" fill="#a7a9ac" fill-rule="evenodd"/>
  <g id="g3188" transform="matrix(0 4.43 4.4388 0 -315.56 3679.2)">
   <path id="path3190" d="m-800.93 97.669c-0.293-1.578 0.106-2.978 0.98-4.255h4.452c-1.267 1.875-1.572 3.751-1.336 5.626l-4.096-1.371" fill="none" stroke="#231f20" stroke-miterlimit="2.613" stroke-width=".601"/>
  </g>
  <path id="path3192" d="m80.195 126.12c7.0064-1.2993 13.219 0.47005 18.891 4.3413v19.724c-8.3278-5.6184-16.651-6.9664-24.975-5.9199l6.084-18.146" fill="#fff" fill-rule="evenodd"/>
  <g id="g3194" transform="matrix(0 -4.43 -4.4388 0 -315.56 3679.2)">
   <path id="path3196" d="m802.03-89.158c0.293-1.579-0.107-2.978-0.98-4.256h-4.453c1.268 1.876 1.572 3.751 1.336 5.627l4.097-1.371" fill="none" stroke="#231f20" stroke-miterlimit="2.613" stroke-width=".601"/>
  </g>
  <path id="path3198" d="m117.97 126.12c-7.0064-1.2993-13.219 0.47005-18.886 4.3413v19.724c8.3234-5.6184 16.647-6.9664 24.97-5.9199l-6.084-18.146" fill="#fff" fill-rule="evenodd"/>
  <g id="g3200" transform="matrix(0 4.43 4.4388 0 -315.56 3679.2)">
   <path id="path3202" d="m-802.03 97.669c-0.293-1.578 0.107-2.978 0.98-4.255h4.453c-1.268 1.875-1.572 3.751-1.336 5.626l-4.097-1.371" fill="none" stroke="#231f20" stroke-miterlimit="2.613" stroke-width=".601"/>
  </g>
  <path id="path3204" d="m112.56 133.06-0.42127-0.21756-0.40798-0.24399c-0.20814-0.12427-0.40791-0.22587-0.60749-0.30588l-0.38136-0.1553-0.9844-0.35475c-0.34136-0.12856-0.72283-0.2085-1.1397-0.25701-0.42125-0.0442-0.776-0.0402-1.0643 0.0146-0.24396 0.0399-0.43897 0.11088-0.58536 0.20851-0.34572 0.16831-0.58974 0.46559-0.73609 0.90016-0.0362 0.22589-0.0362 0.43457-4e-3 0.62527l0.0399 0.25738 0.13755 0.27909 0.15058 0.22588 0.0887 0.0887 1.2771-0.22588 0.0844 0.51884-1.2771 0.22588 0.99332 6.124-0.79379 0.1419-0.99772-6.1239-1.3215 0.23492-0.0844-0.51439 1.3658-0.24831-0.0622-0.10205-0.15094-0.31023-0.1553-0.3323-0.0362-0.20852c-0.0362-0.23058-0.0442-0.43014-0.0254-0.58978 0.0217-0.16834 0.0887-0.34137 0.20381-0.52767 0.21755-0.3725 0.52766-0.66963 0.93122-0.90462 0.2972-0.15096 0.59862-0.25305 0.92237-0.31023 0.75826-0.13323 1.654-0.0362 2.6828 0.29248 0.42569 0.13755 0.81152 0.28381 1.1529 0.44343l1.2106 0.5809 0.49221 0.31022 0.5144 0.29249-1.011 0.16834zm0.92682 0.3769 1.0022 6.124-0.79822 0.14191-0.32797-2.0132-0.31059 0.28382-0.30154 0.24831-0.43898 0.22589-0.46123 0.12426c-0.58975 0.10204-1.1396 0.0326-1.6451-0.22189-0.27078-0.1419-0.47891-0.29684-0.63413-0.47892-0.0663-0.0887-0.12428-0.18606-0.17268-0.2972-0.0489-0.11088-0.0844-0.23927-0.10633-0.38577-0.0797-0.49666 0.0442-0.96671 0.38139-1.4057 0.33702-0.44785 0.78042-0.71391 1.3436-0.81592l0.27078-0.0489 0.30624-0.0145 0.26606 4e-3c0.0974-0.018 0.16833-0.0326 0.20851-0.0362l0.27911 0.66516-0.17739-0.0485-0.14661-0.0289-0.42121-0.0326-0.41247 0.0326c-0.21755 0.0402-0.39908 0.10633-0.54096 0.19077-0.23528 0.11946-0.41686 0.38579-0.53654 0.78489-0.0216 0.16435-0.0288 0.32397 0 0.47892 0.10205 0.61193 0.43457 0.98443 1.0022 1.1219 0.26172 0.0146 0.46559 8e-3 0.61634-0.018l0.16435-0.0326 0.27945-0.10203c0.16434-0.0533 0.30624-0.1419 0.42125-0.25738 0.30588-0.19078 0.52322-0.41683 0.64297-0.68732l-0.54546-3.3657-4.9887 0.89132-0.0844-0.53212 7.166-1.2771 0.0887 0.53212-1.388 0.24364" fill="#231f20" fill-rule="evenodd"/>
  <path id="path3206" d="m112.56 133.06-0.42127-0.21756-0.40798-0.24399c-0.20814-0.12427-0.40791-0.22587-0.60749-0.30588l-0.38136-0.1553-0.9844-0.35475c-0.34136-0.12856-0.72283-0.2085-1.1397-0.25701-0.42125-0.0442-0.776-0.0402-1.0643 0.0146-0.24396 0.0399-0.43897 0.11088-0.58536 0.20851-0.34572 0.16831-0.58974 0.46559-0.73609 0.90016 0 0.22589-4e-3 0.43457-4e-3 0.62527l0.0399 0.25738 0.13755 0.27909 0.15058 0.22588 0.0887 0.0887 1.2771-0.22588 0.0844 0.51884-1.2771 0.22588 0.99332 6.124-0.79379 0.1419-0.99772-6.1239-1.3215 0.23492-0.0844-0.51439 1.3658-0.24831-0.0622-0.10205-0.15094-0.31023-0.1553-0.3323-0.0362-0.20852c-0.0362-0.23058-0.0254-0.43014-0.0254-0.58978 0-0.16834 0.0887-0.34137 0.20381-0.52767 0.21755-0.3725 0.52766-0.66963 0.93122-0.90462 0.2972-0.15096 0.59862-0.25305 0.92237-0.31023 0.75826-0.13323 1.654-0.0362 2.6828 0.29248 0.42569 0.13755 0.81152 0.28381 1.1529 0.44343l1.2106 0.5809 0.49221 0.31022 0.5144 0.29249-1.011 0.16834m0.92681 0.37695 1.0022 6.1239-0.79818 0.1419-0.32833-2.0132-0.31023 0.28379-0.30155 0.24833-0.43901 0.22589-0.46118 0.12427c-0.58975 0.10204-1.1396 0.0326-1.6451-0.2219-0.27079-0.1419-0.47892-0.29683-0.63416-0.47892-0.0662-0.0887-0.12414-0.18607-0.17268-0.29719-0.0489-0.11089-0.10633-0.23929-0.10633-0.38579-0.0797-0.49664 0.0446-0.9667 0.38137-1.4057 0.33702-0.44786 0.78045-0.71392 1.3436-0.81594l0.27077-0.0489 0.30624-0.0146 0.26607 4e-3 0.20851-0.0362 0.27909 0.66516-0.17738-0.0485-0.1466-0.0288-0.4213-0.0326-0.41237 0.0326c-0.21756 0.0403-0.39909 0.10647-0.541 0.19078-0.23529 0.11946-0.41684 0.38577-0.53658 0.78487v0.47892c0.10204 0.61195 0.43458 0.98444 1.0022 1.1219 0.26171 0.0145 0.46562 8e-3 0.6164-0.018l0.16434-0.0326 0.27911-0.10204c0.16433-0.0533 0.30624-0.1419 0.42125-0.25736 0.30588-0.19078 0.52325-0.41683 0.643-0.68731l-0.54546-3.3658-4.9887 0.89133-0.084-0.53212 7.166-1.2771 0.0887 0.53213-1.388 0.24361" fill="none" stroke="#231f20" stroke-miterlimit="2.613" stroke-width=".43014"/>
  <path id="path3208" d="m90.469 133.9-0.37249 1.6673-3.1174-0.70063-0.0532 0.0446-0.05763 0.0533-0.03992 0.17737 0.02679 0.15529 0.08869 0.22191 0.16851 0.28814 0.34143 0.50553 0.19956 0.21755 0.19953 0.0887c0.1907 0.0442 0.44344 0.0576 0.76272 0.0399l0.4124-0.0399 0.40353-8e-3 0.31928 0.071c0.23059 0.0533 0.3991 0.19076 0.50996 0.40795 0.03077 0.0622 0.05763 0.17738 0.08869 0.35475l-0.02207 0.35475c-0.06207 0.28851-0.17738 0.54102-0.34143 0.76273-0.21285 0.2972-0.54543 0.53213-0.98888 0.70951l-0.4257 0.14624c-0.30154 0.0442-0.5543 0.0485-0.75385 4e-3 0.49222 0.65184 1.011 1.1441 1.6452 1.6718l-0.52769 0.46563-0.19512-0.17738-0.1419-0.12856c-0.04875-0.0362-0.10642-0.0887-0.17738-0.15964-0.07096-0.0709-0.1419-0.14625-0.20398-0.23494l-0.63412-0.72723-0.30154-0.40356-0.235-0.27946-0.08869-0.15492-0.52326-0.11517c-0.13748-0.0326-0.29712-0.0887-0.47449-0.17737-0.07096-0.0145-0.1419-0.0533-0.21285-0.11088-0.43901-0.23492-0.60751-0.55875-0.51439-0.97558l0.09311-0.20381c0.04875-0.071 0.11088-0.12882 0.19511-0.1683l0.23501-0.0844 0.29712 0.0146c0.31482 0.0709 0.64299 0.31927 0.97557 0.74057l0.14636 0.26135 0.20398 0.33702c0.19953 0.0442 0.37693 0.0666 0.53213 0.058 0.16409 0.018 0.29712 8e-3 0.3991-0.018 0.65629-0.0973 1.051-0.43457 1.184-1.0199l0.05321-0.24398c0.02679-0.11087 0.03114-0.18606 0.0087-0.23058-0.01303-0.0446-0.03077-0.0753-0.04875-0.0974l-0.14635-0.0887h-0.25278l-0.52326 0.0398-0.59864 0.0146-0.43014-0.0442c-0.39466-0.0887-0.76716-0.45677-1.1175-1.113-0.3503-0.65185-0.49222-1.1086-0.43457-1.3747l0.08869-0.18172 0.20398-0.13756 0.26607-0.0753 0.26606 4e-3 2.5941 0.58089 0.2572-1.1574-4.2437-0.95341 0.1153-0.52326 6.7226 1.5077-0.11971 0.52326-1.6851-0.37691" fill="#231f20" fill-rule="evenodd"/>
  <path id="path3210" d="m90.469 133.9-0.37249 1.6673-3.1174-0.70063-0.0532 0.0446-0.05763 0.0533-0.03992 0.17737 0.02679 0.15529 0.08869 0.22191 0.16851 0.28814 0.34143 0.50553 0.19956 0.21755 0.19953 0.0887c0.1907 0.0442 0.44344 0.0576 0.76272 0.0399l0.4124-0.0399 0.40353-8e-3 0.31928 0.071c0.23059 0.0533 0.3991 0.19076 0.50996 0.40795 0 0 0.08869 0.17738 0.08869 0.35475l-0.02207 0.35475c-0.06207 0.28851-0.17738 0.54102-0.34143 0.76273-0.21285 0.2972-0.54543 0.53213-0.98888 0.70951l-0.4257 0.14624c-0.30154 0.0442-0.5543 0.0485-0.75385 4e-3 0.49222 0.65184 1.011 1.1441 1.6452 1.6718l-0.52769 0.46563-0.19512-0.17738-0.1419-0.12856c-0.04875-0.0362-0.10642-0.0887-0.17738-0.15964-0.07096-0.0709-0.1419-0.14625-0.20398-0.23494l-0.63412-0.72723-0.30154-0.40356-0.235-0.27946-0.08869-0.15492-0.52326-0.11517s-0.29712-0.0887-0.47449-0.17737c0 0-0.1419-0.0533-0.21285-0.11088-0.43901-0.23492-0.60751-0.55875-0.51439-0.97558l0.09311-0.20381c0.04875-0.071 0.11088-0.12882 0.19511-0.1683l0.23501-0.0844 0.29712 0.0146c0.31482 0.0709 0.64299 0.31927 0.97557 0.74057l0.14636 0.26135 0.20398 0.33702c0.19953 0.0442 0.37693 0.0666 0.53213 0.058 0.16409 0.018 0.3991-0.018 0.3991-0.018 0.65629-0.0973 1.051-0.43457 1.184-1.0199l0.05321-0.24398 0.0087-0.23058-0.04875-0.0974-0.14635-0.0887h-0.25278l-0.52326 0.0398-0.59864 0.0146-0.43014-0.0442c-0.39466-0.0887-0.76716-0.45677-1.1175-1.113-0.3503-0.65185-0.49222-1.1086-0.43457-1.3747l0.08869-0.18172 0.20398-0.13756 0.26607-0.0753 0.26606 4e-3 2.5941 0.58089 0.2572-1.1574-4.2437-0.95341 0.1153-0.52326 6.7226 1.5077-0.11971 0.52326-1.6851-0.37691" fill="none" stroke="#231f20" stroke-miterlimit="2.613" stroke-width=".43014"/>
  <path id="path3212" d="m48.746 118.88 6.8068-4.0043v4.7271l8.1593-4.8024v5.7293l3.1972-1.8802h-0.70064v-17.813h2.7582v16.602l5.0597-2.9755v5.7071h1.96v16.993h-29.657c-0.01773-0.61194-0.03077-1.2283-0.03077-1.8491 0-5.7293 0.86028-11.25 2.4478-16.434zm8.7846 0.80261h5.1834v2.7618h-5.1834zm10.266 0h5.1834v2.7618h-5.1834z" fill="#231f20" fill-rule="evenodd"/>
  <path id="path3214" d="m71.268 96.286c0.23946 0.4035-0.64743 1.4013-1.9822 2.2216-1.3392 0.82038-2.6163 1.1574-2.8558 0.74942-0.23946-0.40796 0.64742-1.4013 1.9822-2.2217 1.3392-0.82034 2.6119-1.1574 2.8558-0.74938" fill="#0066b3" fill-rule="evenodd"/>
  <path id="path3216" d="m73.17 97.829c0.18179 0.30624-0.48779 1.0598-1.4944 1.6762-1.0066 0.62083-1.9689 0.87356-2.1507 0.56761-0.18179-0.30625 0.48779-1.0554 1.4944-1.6762 1.0066-0.62083 1.9689-0.87362 2.1507-0.56761" fill="#0066b3" fill-rule="evenodd"/>
  <g id="g3218" transform="matrix(0 -4.4302 -4.4386 0 -315.56 3679.2)">
   <path id="path3220" d="m812.18-93.325c0-6.517-5.486-11.802-12.25-11.802s-12.25 5.285-12.25 11.802c0 6.516 5.486 11.801 12.25 11.801s12.25-5.285 12.25-11.801z" fill="none" stroke="#231f20" stroke-miterlimit="2.613" stroke-width=".604"/>
  </g>
  <path id="path3224" d="m84.345 110.77h27.493v-23.409h-27.493z" fill="#0066b3"/>
  <g id="g3226" transform="matrix(4.4344 0 0 -4.4344 -315.56 3679.2)">
   <g id="g3228" clip-path="url(#clipPath3230)">
    <g id="g3234" clip-path="url(#clipPath3236)">
     <path id="path3246" d="m90.738 805.18h5.0895v4.1631h-5.0895z" fill="url(#linearGradient3240)"/>
    </g>
   </g>
  </g>
  <path id="path3248" d="m86.811 90.211h22.569v-0.45036h-22.569z" fill="#fafdff"/>
  <path id="path3250" d="m86.811 89.759h22.569v-0.30046h-22.569z" fill="#fff"/>
  <path id="path3252" d="m109.38 89.461h-22.567 22.567" fill="#fff" fill-rule="evenodd"/>
  <path id="path3254" d="m94.136 93.426 0.0043-0.0039c0.23504-0.18643 0.50109-0.31928 0.79376-0.39465 0.28825-0.07526 0.59421-0.09736 0.91349-0.07526 1.5166 0.11543 3.4588 1.3481 5.002 3.3169v0.0039l0.013 0.01456c0.29266 0.3725 0.5543 0.76272 0.78932 1.1485 0.23504 0.39024 0.43899 0.78045 0.61194 1.1662 0.93567 2.0842 0.92237 4.0619-0.20397 4.9754l-9e-3 8e-3h-4e-3c-0.80708 0.64742-1.9866 0.6164-3.2327 0.0485-1.1618-0.52773-2.4079-1.5299-3.4677-2.8824l-0.0087-0.0146h-0.0043l-0.0087-0.0145c-0.29242-0.37707-0.55406-0.76288-0.79351-1.1487-0.23504-0.39023-0.43901-0.78046-0.61195-1.1662-0.93566-2.0886-0.91793-4.0619 0.20398-4.9754l0.01303-0.0078zm0.5676 0.74499v0.0039c-0.76715 0.62526-0.6962 2.1551 0.06208 3.8402 0.15518 0.35006 0.34143 0.70508 0.55874 1.0598 0.21285 0.35477 0.45674 0.70952 0.73168 1.0643h0.0047l0.01303 0.0181v4e-3c0.9667 1.2283 2.0886 2.1374 3.1174 2.6074 0.93567 0.4257 1.7738 0.47892 2.2881 0.0666v-4e-3c0.76716-0.62081 0.69621-2.1507-0.0576-3.8402-0.15522-0.34607-0.34143-0.70064-0.55875-1.0598-0.21285-0.35005-0.46118-0.70508-0.73168-1.0598h-4e-3l-0.013-0.01807c-1.3747-1.7604-3.0598-2.8558-4.3369-2.9533-0.22172-0.01807-0.43014-0.0039-0.60752 0.0442h-0.0043c-0.17296 0.0442-0.32815 0.11946-0.46118 0.22588" fill="#231f20" fill-rule="evenodd"/>
  <path id="path3256" d="m102.04 93.421 5e-3 0.0039 0.0176 0.0078 9e-3 0.0117c0.79818 0.66072 1.0332 1.8359 0.76714 3.2016-0.24387 1.2638-0.92236 2.7227-1.9778 4.0797l-0.013 0.0145-9e-3 0.0146c-1.0598 1.3525-2.3103 2.3547-3.4677 2.8824-1.2505 0.56759-2.4256 0.59862-3.2327-0.0485h-0.0043l-0.01302-0.0146-0.01339-8e-3c-0.79376-0.65631-1.0288-1.8314-0.76715-3.1972 0.24833-1.2682 0.92679-2.7272 1.9822-4.0797h-0.0043l0.01303-0.01456 0.0043-0.0039c1.5387-1.9689 3.4854-3.2016 5.002-3.3169 0.31486-0.02899 0.62526 0 0.90905 0.07526 0.29268 0.07526 0.55874 0.2085 0.79377 0.39467zm-0.56318 0.7494c-0.13302-0.10633-0.29266-0.18209-0.46116-0.22588-0.1818-0.04887-0.3858-0.06188-0.61196-0.0442-1.2727 0.09736-2.9578 1.1928-4.3369 2.9533l-0.01339 0.01456v0.0039c-0.96227 1.2328-1.5787 2.5454-1.7959 3.6761-0.19957 1.0199-0.07096 1.8624 0.43901 2.2793l0.0091 8e-3c0.51439 0.41243 1.3481 0.3591 2.2837-0.0666 1.0332-0.47002 2.1551-1.3791 3.1218-2.6074v-8e-3l0.013-0.0146 4e-3 -4e-3c0.95784-1.2328 1.5786-2.5454 1.7915-3.6717 0.19955-1.0244 0.0709-1.8669-0.43459-2.2837l-0.013-0.0078h4e-3" fill="#231f20" fill-rule="evenodd"/>
  <path id="path3258" d="m99.874 94.929c0.59422 0 1.0776 0.48778 1.0776 1.0953 0 0.60755-0.48334 1.0953-1.0776 1.0953-0.59421 0-1.0776-0.48778-1.0776-1.0953 0-0.60749 0.48335-1.0953 1.0776-1.0953" fill="#231f20" fill-rule="evenodd"/>
  <path id="path3260" d="m100.1 99.634c0.59421 0 1.0731 0.49226 1.0731 1.0997 0 0.60753-0.47892 1.0953-1.0731 1.0953-0.59865 0-1.0776-0.48779-1.0776-1.0953 0-0.60748 0.47892-1.0997 1.0776-1.0997" fill="#231f20" fill-rule="evenodd"/>
  <path id="path3264" d="m92.589 112.8h11.009v-1.9812h-11.009z" fill="#0066b3"/>
  <path id="path3266" d="m90.691 114.9h14.803v-2.0954h-14.803z" fill="#0066b3"/>
  <path id="path3268" d="m81.862 114.9h33.094l2.8247 6.7536h-39.373l3.4544-6.7536" fill="#0066b3" fill-rule="evenodd"/>
  <path id="path3270" d="m82.381 115.99h31.697l1.8758 4.5719h-35.719l2.1463-4.5719" fill="#fff" fill-rule="evenodd"/>
 </g>
</svg>
