<?xml version="1.0" encoding="UTF-8" standalone="no"?>
<!-- Created with Inkscape (http://www.inkscape.org/) -->

<svg
   width="112.446"
   height="116.216"
   id="svg2"
   version="1.1"
   inkscape:version="1.3 (0e150ed6c4, 2023-07-21)"
   sodipodi:docname="favicon.svg"
   xmlns:inkscape="http://www.inkscape.org/namespaces/inkscape"
   xmlns:sodipodi="http://sodipodi.sourceforge.net/DTD/sodipodi-0.dtd"
   xmlns="http://www.w3.org/2000/svg"
   xmlns:svg="http://www.w3.org/2000/svg"
   xmlns:rdf="http://www.w3.org/1999/02/22-rdf-syntax-ns#"
   xmlns:cc="http://creativecommons.org/ns#"
   xmlns:dc="http://purl.org/dc/elements/1.1/">
  <defs
     id="defs4">
    <inkscape:perspective
       sodipodi:type="inkscape:persp3d"
       inkscape:vp_x="0 : 11.057003 : 1"
       inkscape:vp_y="0 : 1000 : 0"
       inkscape:vp_z="53.86375 : 11.057003 : 1"
       inkscape:persp3d-origin="26.931875 : 2.0036702 : 1"
       id="perspective5810" />
    <linearGradient
       id="linearGradient3240"
       gradientUnits="userSpaceOnUse"
       y2="809.33899"
       x2="95.827103"
       y1="805.17603"
       x1="95.827103">
      <stop
         id="stop3242"
         offset="0"
         style="stop-opacity:1;stop-color:#acd5f2" />
      <stop
         id="stop3244"
         offset="1"
         style="stop-opacity:1;stop-color:#f7fcfe" />
    </linearGradient>
    <clipPath
       id="clipPath3236"
       clipPathUnits="userSpaceOnUse">
      <path
         id="path3238"
         d="m 90.738,805.176 h 5.0895 v 4.1631 H 90.738 Z" />
    </clipPath>
    <clipPath
       id="clipPath3230"
       clipPathUnits="userSpaceOnUse">
      <path
         id="path3232"
         d="m 1.2474,845.391 h 592.753 V 0.06 H 1.2474 Z" />
    </clipPath>
  </defs>
  <sodipodi:namedview
     id="base"
     pagecolor="#ffffff"
     bordercolor="#666666"
     borderopacity="1.0"
     inkscape:pageopacity="0.0"
     inkscape:pageshadow="2"
     inkscape:zoom="5.6710514"
     inkscape:cx="62.422287"
     inkscape:cy="60.570779"
     inkscape:document-units="px"
     inkscape:current-layer="layer1"
     showgrid="false"
     inkscape:window-width="1920"
     inkscape:window-height="1018"
     inkscape:window-x="0"
     inkscape:window-y="30"
     inkscape:window-maximized="1"
     inkscape:object-paths="true"
     inkscape:showpageshadow="2"
     inkscape:pagecheckerboard="0"
     inkscape:deskcolor="#d1d1d1" />
  <metadata
     id="metadata7">
    <rdf:RDF>
      <cc:Work
         rdf:about="">
        <dc:format>image/svg+xml</dc:format>
        <dc:type
           rdf:resource="http://purl.org/dc/dcmitype/StillImage" />
      </cc:Work>
    </rdf:RDF>
  </metadata>
  <g
     inkscape:label="logo"
     inkscape:groupmode="layer"
     id="layer1"
     style="display:inline"
     transform="translate(-42.456004,-77.212279)">
    <g
       id="g5194"
       transform="matrix(3.4113852,0,0,-3.4113852,-219.92446,2859.456)">
      <g
         id="g5191" />
    </g>
    <path
       d="m 98.677182,81.049422 c 28.925658,0 52.383758,24.305008 52.383758,54.268388 0,29.96777 -23.4581,54.26837 -52.383758,54.26837 -28.925693,0 -52.379315,-24.3006 -52.379315,-54.26837 0,-29.96338 23.453622,-54.268388 52.379315,-54.268388 z m 0,54.268388 H 151.06094 98.677182"
       style="fill:#f5821f;fill-opacity:1;fill-rule:evenodd;stroke:none"
       id="path2860" />
    <path
       d="m 98.677182,135.31781 h 52.383758 v 0 c 0,29.96777 -23.4581,54.26837 -52.383758,54.26837 -28.925693,0 -52.379315,-24.3006 -52.379315,-54.26837 0,-29.96338 23.453622,-54.268388 52.379315,-54.268388 28.925658,0 52.383758,24.305008 52.383758,54.268388 H 98.677182"
       style="fill:#f5821f;fill-opacity:1;fill-rule:evenodd;stroke:none"
       id="path2862" />
    <path
       d="m 98.677182,135.31781 h 52.383758 v 0 c 0,29.96777 -23.4581,54.26837 -52.383758,54.26837 -28.925693,0 -52.379315,-24.3006 -52.379315,-54.26837 0,-29.96338 23.453622,-54.268388 52.379315,-54.268388 28.925658,0 52.383758,24.305008 52.383758,54.268388 H 98.677182"
       style="fill:#f5841f;fill-opacity:1;fill-rule:evenodd;stroke:none"
       id="path2864" />
    <path
       d="m 98.677182,135.31781 h 52.383758 v 0 c 0,29.96777 -23.4581,54.26837 -52.383758,54.26837 -28.925693,0 -52.379315,-24.3006 -52.379315,-54.26837 0,-29.96338 23.453622,-54.268388 52.379315,-54.268388 28.925658,0 52.383758,24.305008 52.383758,54.268388 H 98.677182"
       style="fill:#f6851f;fill-opacity:1;fill-rule:evenodd;stroke:none"
       id="path2866" />
    <path
       d="m 98.677182,135.31781 h 52.383758 v 0 c 0,29.96777 -23.4581,54.26837 -52.383758,54.26837 -28.925693,0 -52.379315,-24.3006 -52.379315,-54.26837 0,-29.96338 23.453622,-54.268388 52.379315,-54.268388 28.925658,0 52.383758,24.305008 52.383758,54.268388 H 98.677182"
       style="fill:#f6881f;fill-opacity:1;fill-rule:evenodd;stroke:none"
       id="path2868" />
    <path
       d="m 98.677182,135.31781 h 52.383758 v 0 c 0,29.96777 -23.4581,54.26837 -52.383758,54.26837 -28.925693,0 -52.379315,-24.3006 -52.379315,-54.26837 0,-29.96338 23.453622,-54.268388 52.379315,-54.268388 28.925658,0 52.383758,24.305008 52.383758,54.268388 H 98.677182"
       style="fill:#f6891f;fill-opacity:1;fill-rule:evenodd;stroke:none"
       id="path2870" />
    <path
       d="m 98.677182,135.31781 h 52.383758 v 0 c 0,29.96777 -23.4581,54.26837 -52.383758,54.26837 -28.925693,0 -52.379315,-24.3006 -52.379315,-54.26837 0,-29.96338 23.453622,-54.268388 52.379315,-54.268388 28.925658,0 52.383758,24.305008 52.383758,54.268388 H 98.677182"
       style="fill:#f68b1e;fill-opacity:1;fill-rule:evenodd;stroke:none"
       id="path2872" />
    <path
       d="m 98.677182,135.31781 h 52.383758 v 0 c 0,29.96777 -23.4581,54.26837 -52.383758,54.26837 -28.925693,0 -52.379315,-24.3006 -52.379315,-54.26837 0,-29.96338 23.453622,-54.268388 52.379315,-54.268388 28.925658,0 52.383758,24.305008 52.383758,54.268388 H 98.677182"
       style="fill:#f68b1e;fill-opacity:1;fill-rule:evenodd;stroke:none"
       id="path2874" />
    <path
       d="m 98.677182,135.31781 h 52.383758 v 0 c 0,29.96777 -23.4581,54.26837 -52.383758,54.26837 -28.925693,0 -52.379315,-24.3006 -52.379315,-54.26837 0,-29.96338 23.453622,-54.268388 52.379315,-54.268388 28.925658,0 52.383758,24.305008 52.383758,54.268388 H 98.677182"
       style="fill:#f68c1e;fill-opacity:1;fill-rule:evenodd;stroke:none"
       id="path2876" />
    <path
       d="m 98.677182,135.31781 h 52.383758 v 0 c 0,29.96777 -23.4581,54.26837 -52.383758,54.26837 -28.925693,0 -52.379315,-24.3006 -52.379315,-54.26837 0,-29.96338 23.453622,-54.268388 52.379315,-54.268388 28.925658,0 52.383758,24.305008 52.383758,54.268388 H 98.677182"
       style="fill:#f78f1e;fill-opacity:1;fill-rule:evenodd;stroke:none"
       id="path2878" />
    <path
       d="m 98.677182,135.31781 h 52.383758 v 0 c 0,29.96777 -23.4581,54.26837 -52.383758,54.26837 -28.925693,0 -52.379315,-24.3006 -52.379315,-54.26837 0,-29.96338 23.453622,-54.268388 52.379315,-54.268388 28.925658,0 52.383758,24.305008 52.383758,54.268388 H 98.677182"
       style="fill:#f7901e;fill-opacity:1;fill-rule:evenodd;stroke:none"
       id="path2880" />
    <path
       d="m 98.677182,135.31781 h 52.383758 v 0 c 0,29.96777 -23.4581,54.26837 -52.383758,54.26837 -28.925693,0 -52.379315,-24.3006 -52.379315,-54.26837 0,-29.96338 23.453622,-54.268388 52.379315,-54.268388 28.925658,0 52.383758,24.305008 52.383758,54.268388 H 98.677182"
       style="fill:#f7921d;fill-opacity:1;fill-rule:evenodd;stroke:none"
       id="path2882" />
    <path
       d="m 98.677182,135.31781 h 52.383758 v 0 c 0,29.96777 -23.4581,54.26837 -52.383758,54.26837 -28.925693,0 -52.379315,-24.3006 -52.379315,-54.26837 0,-29.96338 23.453622,-54.268388 52.379315,-54.268388 28.925658,0 52.383758,24.305008 52.383758,54.268388 H 98.677182"
       style="fill:#f7931d;fill-opacity:1;fill-rule:evenodd;stroke:none"
       id="path2884" />
    <path
       d="m 98.677182,135.31781 h 52.383758 v 0 c 0,29.96777 -23.4581,54.26837 -52.383758,54.26837 -28.925693,0 -52.379315,-24.3006 -52.379315,-54.26837 0,-29.96338 23.453622,-54.268388 52.379315,-54.268388 28.925658,0 52.383758,24.305008 52.383758,54.268388 H 98.677182"
       style="fill:#f8951d;fill-opacity:1;fill-rule:evenodd;stroke:none"
       id="path2886" />
    <path
       d="m 98.677182,135.31781 h 52.383758 v 0 c 0,29.96777 -23.4581,54.26837 -52.383758,54.26837 -28.925693,0 -52.379315,-24.3006 -52.379315,-54.26837 0,-29.96338 23.453622,-54.268388 52.379315,-54.268388 28.925658,0 52.383758,24.305008 52.383758,54.268388 H 98.677182"
       style="fill:#f8981d;fill-opacity:1;fill-rule:evenodd;stroke:none"
       id="path2888" />
    <path
       d="m 98.677182,135.31781 h 52.383758 v 0 c 0,29.96777 -23.4581,54.26837 -52.383758,54.26837 -28.925693,0 -52.379315,-24.3006 -52.379315,-54.26837 0,-29.96338 23.453622,-54.268388 52.379315,-54.268388 28.925658,0 52.383758,24.305008 52.383758,54.268388 H 98.677182"
       style="fill:#f8991c;fill-opacity:1;fill-rule:evenodd;stroke:none"
       id="path2890" />
    <path
       d="m 98.677182,135.31781 h 52.383758 v 0 c 0,29.96777 -23.4581,54.26837 -52.383758,54.26837 -28.925693,0 -52.379315,-24.3006 -52.379315,-54.26837 0,-29.96338 23.453622,-54.268388 52.379315,-54.268388 28.925658,0 52.383758,24.305008 52.383758,54.268388 H 98.677182"
       style="fill:#f99b1c;fill-opacity:1;fill-rule:evenodd;stroke:none"
       id="path2892" />
    <path
       d="m 98.677182,135.31781 h 52.383758 v 0 c 0,29.96777 -23.4581,54.26837 -52.383758,54.26837 -28.925693,0 -52.379315,-24.3006 -52.379315,-54.26837 0,-29.96338 23.453622,-54.268388 52.379315,-54.268388 28.925658,0 52.383758,24.305008 52.383758,54.268388 H 98.677182"
       style="fill:#f99c1c;fill-opacity:1;fill-rule:evenodd;stroke:none"
       id="path2894" />
    <path
       d="m 98.677182,135.31781 h 52.383758 v 0 c 0,29.96777 -23.4581,54.26837 -52.383758,54.26837 -28.925693,0 -52.379315,-24.3006 -52.379315,-54.26837 0,-29.96338 23.453622,-54.268388 52.379315,-54.268388 28.925658,0 52.383758,24.305008 52.383758,54.268388 H 98.677182"
       style="fill:#f99e1b;fill-opacity:1;fill-rule:evenodd;stroke:none"
       id="path2896" />
    <path
       d="m 98.677182,135.31781 h 52.383758 v 0 c 0,29.96777 -23.4581,54.26837 -52.383758,54.26837 -28.925693,0 -52.379315,-24.3006 -52.379315,-54.26837 0,-29.96338 23.453622,-54.268388 52.379315,-54.268388 28.925658,0 52.383758,24.305008 52.383758,54.268388 H 98.677182"
       style="fill:#f99e1b;fill-opacity:1;fill-rule:evenodd;stroke:none"
       id="path2898" />
    <path
       d="m 98.677182,135.31781 h 52.383758 v 0 c 0,29.96777 -23.4581,54.26837 -52.383758,54.26837 -28.925693,0 -52.379315,-24.3006 -52.379315,-54.26837 0,-29.96338 23.453622,-54.268388 52.379315,-54.268388 28.925658,0 52.383758,24.305008 52.383758,54.268388 H 98.677182"
       style="fill:#faa21b;fill-opacity:1;fill-rule:evenodd;stroke:none"
       id="path2900" />
    <path
       d="m 98.677182,135.31781 h 52.383758 v 0 c 0,29.96777 -23.4581,54.26837 -52.383758,54.26837 -28.925693,0 -52.379315,-24.3006 -52.379315,-54.26837 0,-29.96338 23.453622,-54.268388 52.379315,-54.268388 28.925658,0 52.383758,24.305008 52.383758,54.268388 H 98.677182"
       style="fill:#faa21b;fill-opacity:1;fill-rule:evenodd;stroke:none"
       id="path2902" />
    <path
       d="m 98.677182,135.31781 h 52.383758 v 0 c 0,29.96777 -23.4581,54.26837 -52.383758,54.26837 -28.925693,0 -52.379315,-24.3006 -52.379315,-54.26837 0,-29.96338 23.453622,-54.268388 52.379315,-54.268388 28.925658,0 52.383758,24.305008 52.383758,54.268388 H 98.677182"
       style="fill:#faa31a;fill-opacity:1;fill-rule:evenodd;stroke:none"
       id="path2904" />
    <path
       d="m 98.677182,135.31781 h 52.383758 v 0 c 0,29.96777 -23.4581,54.26837 -52.383758,54.26837 -28.925693,0 -52.379315,-24.3006 -52.379315,-54.26837 0,-29.96338 23.453622,-54.268388 52.379315,-54.268388 28.925658,0 52.383758,24.305008 52.383758,54.268388 H 98.677182"
       style="fill:#faa61a;fill-opacity:1;fill-rule:evenodd;stroke:none"
       id="path2906" />
    <path
       d="m 98.677182,135.31781 h 52.383758 v 0 c 0,29.96777 -23.4581,54.26837 -52.383758,54.26837 -28.925693,0 -52.379315,-24.3006 -52.379315,-54.26837 0,-29.96338 23.453622,-54.268388 52.379315,-54.268388 28.925658,0 52.383758,24.305008 52.383758,54.268388 H 98.677182"
       style="fill:#faa819;fill-opacity:1;fill-rule:evenodd;stroke:none"
       id="path2908" />
    <path
       d="m 98.677182,135.31781 h 52.383758 v 0 c 0,29.96777 -23.4581,54.26837 -52.383758,54.26837 -28.925693,0 -52.379315,-24.3006 -52.379315,-54.26837 0,-29.96338 23.453622,-54.268388 52.379315,-54.268388 28.925658,0 52.383758,24.305008 52.383758,54.268388 H 98.677182"
       style="fill:#fba919;fill-opacity:1;fill-rule:evenodd;stroke:none"
       id="path2910" />
    <path
       d="m 98.677182,135.31781 h 52.383758 v 0 c 0,29.96777 -23.4581,54.26837 -52.383758,54.26837 -28.925693,0 -52.379315,-24.3006 -52.379315,-54.26837 0,-29.96338 23.453622,-54.268388 52.379315,-54.268388 28.925658,0 52.383758,24.305008 52.383758,54.268388 H 98.677182"
       style="fill:#fbab18;fill-opacity:1;fill-rule:evenodd;stroke:none"
       id="path2912" />
    <path
       d="m 98.677182,135.31781 h 52.383758 v 0 c 0,29.96777 -23.4581,54.26837 -52.383758,54.26837 -28.925693,0 -52.379315,-24.3006 -52.379315,-54.26837 0,-29.96338 23.453622,-54.268388 52.379315,-54.268388 28.925658,0 52.383758,24.305008 52.383758,54.268388 H 98.677182"
       style="fill:#fbad17;fill-opacity:1;fill-rule:evenodd;stroke:none"
       id="path2914" />
    <path
       d="m 98.677182,135.31781 h 52.383758 v 0 c 0,29.96777 -23.4581,54.26837 -52.383758,54.26837 -28.925693,0 -52.379315,-24.3006 -52.379315,-54.26837 0,-29.96338 23.453622,-54.268388 52.379315,-54.268388 28.925658,0 52.383758,24.305008 52.383758,54.268388 H 98.677182"
       style="fill:#fcaf17;fill-opacity:1;fill-rule:evenodd;stroke:none"
       id="path2916" />
    <path
       d="m 98.677182,135.31781 h 52.383758 v 0 c 0,29.96777 -23.4581,54.26837 -52.383758,54.26837 -28.925693,0 -52.379315,-24.3006 -52.379315,-54.26837 0,-29.96338 23.453622,-54.268388 52.379315,-54.268388 28.925658,0 52.383758,24.305008 52.383758,54.268388 H 98.677182"
       style="fill:#fcb116;fill-opacity:1;fill-rule:evenodd;stroke:none"
       id="path2918" />
    <path
       d="m 98.677182,135.31781 h 52.383758 v 0 c 0,29.96777 -23.4581,54.26837 -52.383758,54.26837 -28.925693,0 -52.379315,-24.3006 -52.379315,-54.26837 0,-29.96338 23.453622,-54.268388 52.379315,-54.268388 28.925658,0 52.383758,24.305008 52.383758,54.268388 H 98.677182"
       style="fill:#fcb315;fill-opacity:1;fill-rule:evenodd;stroke:none"
       id="path2920" />
    <path
       d="m 98.677182,135.31781 h 52.383758 v 0 c 0,29.96777 -23.4581,54.26837 -52.383758,54.26837 -28.925693,0 -52.379315,-24.3006 -52.379315,-54.26837 0,-29.96338 23.453622,-54.268388 52.379315,-54.268388 28.925658,0 52.383758,24.305008 52.383758,54.268388 H 98.677182"
       style="fill:#fcb315;fill-opacity:1;fill-rule:evenodd;stroke:none"
       id="path2922" />
    <path
       d="m 98.677182,135.31781 h 52.383758 v 0 c 0,29.96777 -23.4581,54.26837 -52.383758,54.26837 -28.925693,0 -52.379315,-24.3006 -52.379315,-54.26837 0,-29.96338 23.453622,-54.268388 52.379315,-54.268388 28.925658,0 52.383758,24.305008 52.383758,54.268388 H 98.677182"
       style="fill:#fdb714;fill-opacity:1;fill-rule:evenodd;stroke:none"
       id="path2924" />
    <path
       d="m 98.677182,135.31781 h 52.383758 v 0 c 0,29.96777 -23.4581,54.26837 -52.383758,54.26837 -28.925693,0 -52.379315,-24.3006 -52.379315,-54.26837 0,-29.96338 23.453622,-54.268388 52.379315,-54.268388 28.925658,0 52.383758,24.305008 52.383758,54.268388 H 98.677182"
       style="fill:#fdb714;fill-opacity:1;fill-rule:evenodd;stroke:none"
       id="path2926" />
    <path
       d="m 98.677182,135.31781 h 52.383758 v 0 c 0,29.96777 -23.4581,54.26837 -52.383758,54.26837 -28.925693,0 -52.379315,-24.3006 -52.379315,-54.26837 0,-29.96338 23.453622,-54.268388 52.379315,-54.268388 28.925658,0 52.383758,24.305008 52.383758,54.268388 H 98.677182"
       style="fill:#fdba12;fill-opacity:1;fill-rule:evenodd;stroke:none"
       id="path2928" />
    <path
       d="m 98.677182,135.31781 h 52.383758 v 0 c 0,29.96777 -23.4581,54.26837 -52.383758,54.26837 -28.925693,0 -52.379315,-24.3006 -52.379315,-54.26837 0,-29.96338 23.453622,-54.268388 52.379315,-54.268388 28.925658,0 52.383758,24.305008 52.383758,54.268388 H 98.677182"
       style="fill:#fdba12;fill-opacity:1;fill-rule:evenodd;stroke:none"
       id="path2930" />
    <path
       d="m 98.677182,135.31781 h 52.383758 v 0 c 0,29.96777 -23.4581,54.26837 -52.383758,54.26837 -28.925693,0 -52.379315,-24.3006 -52.379315,-54.26837 0,-29.96338 23.453622,-54.268388 52.379315,-54.268388 28.925658,0 52.383758,24.305008 52.383758,54.268388 H 98.677182"
       style="fill:#febc11;fill-opacity:1;fill-rule:evenodd;stroke:none"
       id="path2932" />
    <path
       d="m 98.677182,135.31781 h 52.383758 v 0 c 0,29.96777 -23.4581,54.26837 -52.383758,54.26837 -28.925693,0 -52.379315,-24.3006 -52.379315,-54.26837 0,-29.96338 23.453622,-54.268388 52.379315,-54.268388 28.925658,0 52.383758,24.305008 52.383758,54.268388 H 98.677182"
       style="fill:#febe10;fill-opacity:1;fill-rule:evenodd;stroke:none"
       id="path2934" />
    <path
       d="m 98.677182,135.31781 h 52.383758 v 0 c 0,19.07684 -9.50743,35.85222 -23.87931,45.53257 -8.2436,5.26363 -18.02151,8.31009 -28.504448,8.31009 -10.487393,0 -20.265282,-3.05088 -28.517726,-8.31896 -14.363072,-9.68035 -23.861589,-26.45131 -23.861589,-45.5237 0,-19.07686 9.507386,-35.856689 23.883762,-45.532589 8.243578,-5.259216 18.017029,-8.310095 28.495553,-8.310095 10.478528,0 20.251938,3.050879 28.495598,8.310095 14.37635,9.6759 23.88816,26.455729 23.88816,45.532589 H 98.677182"
       style="fill:#fec00e;fill-opacity:1;fill-rule:evenodd;stroke:none"
       id="path2936" />
    <path
       d="m 98.677182,135.31781 h 52.383758 v 0 c 0,10.7623 -3.02432,20.79295 -8.24356,29.22724 -9.43643,14.46948 -25.67971,24.02565 -44.140198,24.02565 -18.456037,0 -34.699301,-9.55172 -44.135738,-24.02124 -5.219306,-8.4387 -8.243577,-18.46935 -8.243577,-29.23165 0,-10.7579 3.024271,-20.78414 8.239143,-29.22281 9.436438,-14.469515 25.6797,-24.025662 44.140172,-24.025662 18.460488,0 34.699318,9.551732 44.140198,24.021222 5.21928,8.43425 8.24356,18.4649 8.24356,29.22725 H 98.677182"
       style="fill:#ffc20d;fill-opacity:1;fill-rule:evenodd;stroke:none"
       id="path2938" />
    <path
       d="m 98.677182,135.31781 h 52.219698 c 0,-29.08091 -23.38268,-52.658713 -52.219698,-52.658713 -28.837004,0 -52.215245,23.577803 -52.215245,52.658713 0,29.08531 23.378241,52.65865 52.215245,52.65865 28.837018,0 52.219698,-23.57334 52.219698,-52.65865 H 98.677182"
       style="fill:#ffc20d;fill-opacity:1;fill-rule:evenodd;stroke:none"
       id="path2940" />
    <path
       d="m 98.677182,135.31781 h 51.629878 c 0,-28.75275 -23.11656,-52.064501 -51.629878,-52.064501 -28.513291,0 -51.629903,23.311751 -51.629903,52.064501 0,28.75715 23.116612,52.0689 51.629903,52.0689 28.513278,0 51.629878,-23.31172 51.629878,-52.0689 H 98.677182"
       style="fill:#ffc40c;fill-opacity:1;fill-rule:evenodd;stroke:none"
       id="path2942" />
    <path
       d="M 98.677182,135.31781 H 149.7217 c 0,-28.42907 -22.85497,-51.474706 -51.044518,-51.474706 -28.189583,0 -51.040127,23.045636 -51.040127,51.474706 0,28.43346 22.850544,51.47909 51.040127,51.47909 28.189548,0 51.044518,-23.04563 51.044518,-51.47909 H 98.677182"
       style="fill:#ffc40c;fill-opacity:1;fill-rule:evenodd;stroke:none"
       id="path2944" />
    <path
       d="m 98.677182,135.31781 h 50.459228 c 0,-28.10093 -22.59334,-50.880495 -50.459228,-50.880495 -27.865866,0 -50.45478,22.779565 -50.45478,50.880495 0,28.10532 22.588914,50.88489 50.45478,50.88489 27.865888,0 50.459228,-22.77957 50.459228,-50.88489 H 98.677182"
       style="fill:#ffc40c;fill-opacity:1;fill-rule:evenodd;stroke:none"
       id="path2946" />
    <path
       d="M 98.677182,135.31781 H 148.5466 c 0,-27.77277 -22.3273,-50.290735 -49.869418,-50.290735 -27.542155,0 -49.869439,22.517965 -49.869439,50.290735 0,27.77716 22.327284,50.29513 49.869439,50.29513 27.542118,0 49.869418,-22.51797 49.869418,-50.29513 H 98.677182"
       style="fill:#ffc40c;fill-opacity:1;fill-rule:evenodd;stroke:none"
       id="path2948" />
    <path
       d="m 98.677182,135.31781 h 49.284128 c 0,-27.44905 -22.06565,-49.696523 -49.284128,-49.696523 -27.218442,0 -49.279664,22.251893 -49.279664,49.696523 0,27.44902 22.061222,49.70091 49.279664,49.70091 27.218478,0 49.284128,-22.25189 49.284128,-49.70091 H 98.677182"
       style="fill:#ffc40c;fill-opacity:1;fill-rule:evenodd;stroke:none"
       id="path2950" />
    <path
       d="m 98.677182,135.31781 h 48.698748 c 0,-27.12089 -21.804,-49.106727 -48.698748,-49.106727 -26.894729,0 -48.694316,21.985837 -48.694316,49.106727 0,27.12529 21.799587,49.11113 48.694316,49.11113 26.894748,0 48.698748,-21.98584 48.698748,-49.11113 H 98.677182"
       style="fill:#ffc50a;fill-opacity:1;fill-rule:evenodd;stroke:none"
       id="path2952" />
    <path
       d="m 98.677182,135.31781 h 48.108988 c 0,-26.79275 -21.53795,-48.512517 -48.108988,-48.512517 -26.566583,0 -48.108975,21.719767 -48.108975,48.512517 0,26.79719 21.542392,48.51691 48.108975,48.51691 26.571038,0 48.108988,-21.71972 48.108988,-48.51691 H 98.677182"
       style="fill:#ffc50a;fill-opacity:1;fill-rule:evenodd;stroke:none"
       id="path2954" />
    <path
       d="m 98.677182,135.31781 h 47.523638 c 0,-26.46906 -21.27637,-47.922757 -47.523638,-47.922757 -26.24287,0 -47.52363,21.458157 -47.52363,47.922757 0,26.46899 21.28076,47.92715 47.52363,47.92715 26.247268,0 47.523638,-21.45816 47.523638,-47.92715 H 98.677182"
       style="fill:#ffc50a;fill-opacity:1;fill-rule:evenodd;stroke:none"
       id="path2956" />
    <path
       d="m 98.677182,135.31781 h 46.938258 c 0,-26.14091 -21.01467,-47.332962 -46.938258,-47.332962 -25.919162,0 -46.933853,21.192052 -46.933853,47.332962 0,26.1453 21.014691,47.33736 46.933853,47.33736 25.923588,-0.004 46.938258,-21.19206 46.938258,-47.33736 H 98.677182"
       style="fill:#ffc708;fill-opacity:1;fill-rule:evenodd;stroke:none"
       id="path2958" />
    <path
       d="m 98.677182,135.31781 h 46.352958 c 0,-25.81276 -20.75307,-46.73875 -46.352958,-46.73875 -25.595447,0 -46.348514,20.92599 -46.348514,46.73875 0,25.81715 20.753067,46.74318 46.348514,46.74318 25.599858,0 46.352958,-20.92603 46.352958,-46.74318 H 98.677182"
       style="fill:#ffc708;fill-opacity:1;fill-rule:evenodd;stroke:none"
       id="path2960" />
    <path
       d="m 98.677182,135.31781 h 45.763188 c 0,-25.48462 -20.48698,-46.14899 -45.763188,-46.14899 -25.271733,0 -45.763173,20.66437 -45.763173,46.14899 0.0043,25.489 20.49144,46.15338 45.763173,46.15338 25.276208,-0.004 45.763188,-20.66438 45.763188,-46.15338 H 98.677182"
       style="fill:#ffc708;fill-opacity:1;fill-rule:evenodd;stroke:none"
       id="path2962" />
    <path
       d="m 98.677182,135.31781 h 45.177848 c 0,-25.1609 -20.22539,-45.559195 -45.177848,-45.559195 -24.948021,0 -45.173394,20.398295 -45.173394,45.559195 0,25.16087 20.225373,45.55917 45.173394,45.55917 24.952458,0 45.177848,-20.39388 45.177848,-45.55917 H 98.677182"
       style="fill:#ffc708;fill-opacity:1;fill-rule:evenodd;stroke:none"
       id="path2964" />
    <path
       d="m 98.677182,135.31781 h 44.592488 c 0,-24.83273 -19.96372,-44.964983 -44.592488,-44.964983 -24.624309,0 -44.588047,20.132253 -44.588047,44.964983 0,24.83714 19.963738,44.96942 44.588047,44.96942 24.628768,0 44.592498,-20.13228 44.592498,-44.96942 H 98.677182"
       style="fill:#ffc907;fill-opacity:1;fill-rule:evenodd;stroke:none"
       id="path2966" />
    <path
       d="m 98.677182,135.31781 h 44.002708 c 0,-24.50459 -19.70211,-44.375225 -44.002708,-44.375225 -24.300596,0 -44.002706,19.870635 -44.002706,44.375225 0,24.50899 19.702106,44.37516 44.002706,44.37516 24.300598,0 44.002708,-19.86617 44.002708,-44.37516 H 98.677182"
       style="fill:#ffc907;fill-opacity:1;fill-rule:evenodd;stroke:none"
       id="path2968" />
    <path
       d="m 98.677182,135.31781 h 43.417358 c 0,-24.1809 -19.4405,-43.781012 -43.417358,-43.781012 -23.976885,0 -43.412927,19.600112 -43.412927,43.781012 0,24.18083 19.436042,43.78541 43.412927,43.78541 23.976858,0 43.417338,-19.60458 43.417338,-43.78541 H 98.677182"
       style="fill:#ffc907;fill-opacity:1;fill-rule:evenodd;stroke:none"
       id="path2970" />
    <path
       d="m 98.677182,135.31781 h 42.832028 c 0,-23.85275 -19.17442,-43.191217 -42.832028,-43.191217 -23.653172,0 -42.827585,19.338467 -42.827585,43.191217 0,23.85714 19.174413,43.1956 42.827585,43.1956 23.657578,0 42.832028,-19.33846 42.832028,-43.1956 H 98.677182"
       style="fill:#ffcb04;fill-opacity:1;fill-rule:evenodd;stroke:none"
       id="path2972" />
    <path
       d="m 98.677182,135.31781 h 42.242258 c 0,-23.52461 -18.91283,-42.597006 -42.242258,-42.597006 -23.329461,-0.0039 -42.242242,19.072396 -42.242242,42.597006 0,23.529 18.912781,42.6014 42.242242,42.6014 23.329428,0 42.242258,-19.0724 42.242258,-42.6014 H 98.677182"
       style="fill:#ffcb04;fill-opacity:1;fill-rule:evenodd;stroke:none"
       id="path2974" />
    <path
       d="m 98.677182,135.31781 h 41.656928 c 0,-23.20087 -18.65115,-42.007248 -41.656928,-42.007248 -23.005747,0 -41.652469,18.806378 -41.652469,42.007248 0,23.20086 18.646718,42.01165 41.652469,42.01165 23.005778,0 41.656928,-18.81079 41.656928,-42.01165 H 98.677182"
       style="fill:#ffcb04;fill-opacity:1;fill-rule:evenodd;stroke:none"
       id="path2976" />
    <path
       d="m 98.677182,135.31781 h 41.071578 c 0,-22.87272 -18.38958,-41.413043 -41.071578,-41.413043 -22.682034,0 -41.067121,18.540323 -41.067121,41.413043 0,22.87713 18.385087,41.41744 41.067121,41.41744 22.681998,0 41.071578,-18.54028 41.071578,-41.41744 H 98.677182"
       style="fill:#ffcb04;fill-opacity:1;fill-rule:evenodd;stroke:none"
       id="path2978" />
    <path
       d="m 98.677182,135.31781 h 40.481788 c 0,-22.54457 -18.12344,-40.823245 -40.481788,-40.823245 -22.358324,0 -40.481778,18.278675 -40.481778,40.823245 0,22.54896 18.123454,40.82764 40.481778,40.82764 22.358348,0 40.481788,-18.27868 40.481788,-40.82764 H 98.677182"
       style="fill:#ffcd02;fill-opacity:1;fill-rule:evenodd;stroke:none"
       id="path2980" />
    <path
       d="m 98.677182,135.31781 h 39.896438 c 0,-22.21643 -17.86186,-40.233487 -39.896438,-40.233487 -22.030175,0 -39.892002,18.017057 -39.892002,40.233487 0,22.22082 17.861824,40.23788 39.892002,40.23788 22.034578,-0.004 39.896438,-18.01706 39.896438,-40.23788 H 98.677182"
       style="fill:#ffcd02;fill-opacity:1;fill-rule:evenodd;stroke:none"
       id="path2982" />
    <path
       d="m 98.677182,135.31781 h 39.311058 c 0,-21.89274 -17.60013,-39.639269 -39.311058,-39.639269 -21.706464,0 -39.306659,17.746529 -39.306659,39.639269 0,21.89714 17.600195,39.64366 39.306659,39.64366 21.710928,0 39.311058,-17.74652 39.311058,-39.64366 H 98.677182"
       style="fill:#ffcd02;fill-opacity:1;fill-rule:evenodd;stroke:none"
       id="path2984" />
    <path
       d="m 98.677182,135.31781 h 38.725758 c 0,-21.5646 -17.33856,-39.049484 -38.725758,-39.049484 -21.382752,0 -38.721315,17.484884 -38.721315,39.049484 0,21.56899 17.338563,39.05388 38.721315,39.05388 21.387168,-0.004 38.721308,-17.48489 38.721308,-39.05388 H 98.677182"
       style="fill:#ffcf00;fill-opacity:1;fill-rule:evenodd;stroke:none"
       id="path2986" />
    <path
       d="m 98.677182,135.31781 h 38.135958 c 0,-21.23645 -17.07246,-38.455254 -38.135958,-38.455254 -21.059039,0 -38.135974,17.218804 -38.135974,38.455254 0,21.24084 17.076935,38.45966 38.135974,38.45966 21.063498,0 38.135958,-17.21882 38.135958,-38.45966 H 98.677182"
       style="fill:#ffcf00;fill-opacity:1;fill-rule:evenodd;stroke:none"
       id="path2988" />
    <path
       d="m 98.677182,135.31781 h 37.550658 c 0,-20.9127 -16.81089,-37.865495 -37.550658,-37.865495 -20.735328,0 -37.546196,16.952795 -37.546196,37.865495 0,20.9127 16.810868,37.86989 37.546196,37.86989 20.739768,0 37.550658,-16.95279 37.550658,-37.86989 H 98.677182"
       style="fill:#ffcf00;fill-opacity:1;fill-rule:evenodd;stroke:none"
       id="path2990" />
    <path
       d="m 98.677182,135.31781 h 36.965278 c 0,-20.58456 -16.54922,-37.275698 -36.965278,-37.275698 -20.411614,0 -36.960853,16.691138 -36.960853,37.275698 0,20.58895 16.549239,37.27569 36.960853,37.27569 20.416058,0 36.960858,-16.68674 36.960858,-37.27569 H 98.677182"
       style="fill:#ffcf00;fill-opacity:1;fill-rule:evenodd;stroke:none"
       id="path2992" />
    <path
       d="M 98.677182,135.31781 H 135.0527 c 0,-20.25643 -16.28316,-36.681493 -36.375518,-36.681493 -20.087902,0 -36.375509,16.425063 -36.375509,36.681493 0,20.26083 16.287607,36.68588 36.375509,36.68588 20.092358,0 36.375518,-16.42505 36.375518,-36.68588 H 98.677182"
       style="fill:#ffcf00;fill-opacity:1;fill-rule:evenodd;stroke:none"
       id="path2994" />
    <path
       d="m 98.677182,135.31781 h 35.790148 c 0,-19.93273 -16.02599,-36.091734 -35.790148,-36.091734 -19.76419,0 -35.785733,16.163464 -35.785733,36.091734 0,19.93267 16.021543,36.09171 35.785733,36.09171 19.768618,0 35.790148,-16.15458 35.790148,-36.09171 H 98.677182"
       style="fill:#ffd100;fill-opacity:1;fill-rule:evenodd;stroke:none"
       id="path2996" />
    <path
       d="m 98.677182,135.31781 h 35.204828 c 0,-19.60458 -15.76437,-35.49753 -35.204828,-35.49753 -19.440478,0 -35.200395,15.89295 -35.200395,35.49753 0,19.60897 15.759917,35.50191 35.200395,35.50191 19.440498,0 35.204828,-15.89294 35.204828,-35.50191 H 98.677182"
       style="fill:#ffd100;fill-opacity:1;fill-rule:evenodd;stroke:none"
       id="path2998" />
    <path
       d="m 98.677182,135.31781 h 34.615028 c 0,-19.28084 -15.49384,-34.90773 -34.615028,-34.90773 -19.116765,0 -34.615047,15.63129 -34.615047,34.90773 0,19.28083 15.498282,34.91212 34.615047,34.91212 19.121188,-0.004 34.615028,-15.63129 34.615028,-34.91212 H 98.677182"
       style="fill:#ffd100;fill-opacity:1;fill-rule:evenodd;stroke:none"
       id="path3000" />
    <path
       d="m 98.677182,135.31781 h 34.029728 c 0,-18.94827 -15.23665,-34.31352 -34.029728,-34.31352 -18.793052,0 -34.025273,15.36525 -34.025273,34.31352 0,18.95268 15.232221,34.31795 34.025273,34.31795 18.793078,0 34.029728,-15.36527 34.029728,-34.31795 H 98.677182"
       style="fill:#ffd200;fill-opacity:1;fill-rule:evenodd;stroke:none"
       id="path3002" />
    <path
       d="m 98.677182,135.31781 h 33.444388 c 0,-18.62457 -14.97504,-33.72375 -33.444388,-33.72375 -18.46934,0 -33.439927,15.09918 -33.439927,33.72375 0,18.62896 14.970587,33.72815 33.439927,33.72815 18.469348,0 33.444388,-15.09919 33.444388,-33.72815 H 98.677182"
       style="fill:#ffd200;fill-opacity:1;fill-rule:evenodd;stroke:none"
       id="path3004" />
    <path
       d="m 98.677182,135.31781 h 32.854598 c 0,-18.29641 -14.70894,-33.12955 -32.854598,-33.12955 -18.145629,0 -32.854584,14.83314 -32.854584,33.12955 0,18.30081 14.708953,33.13394 32.854584,33.13394 18.145658,0 32.854598,-14.83313 32.854598,-33.13394 H 98.677182"
       style="fill:#ffd200;fill-opacity:1;fill-rule:evenodd;stroke:none"
       id="path3006" />
    <path
       d="m 98.677182,135.31781 h 32.269258 c 0,-17.97271 -14.44733,-32.53976 -32.269258,-32.53976 -17.821915,0 -32.269242,14.56705 -32.269242,32.53976 0,17.9727 14.447327,32.54419 32.269242,32.54419 17.821928,0 32.269258,-14.57149 32.269258,-32.54419 H 98.677182"
       style="fill:#ffd200;fill-opacity:1;fill-rule:evenodd;stroke:none"
       id="path3008" />
    <path
       d="m 98.677182,135.31781 h 31.683878 c 0,-17.64457 -14.1857,-31.94555 -31.683878,-31.94555 -17.493769,-0.004 -31.679464,14.30098 -31.679464,31.94555 0,17.6445 14.181261,31.95439 31.679464,31.95439 17.498178,-0.004 31.683878,-14.30543 31.683878,-31.95439 H 98.677182"
       style="fill:#ffd400;fill-opacity:1;fill-rule:evenodd;stroke:none"
       id="path3010" />
    <path
       d="m 98.677182,135.31781 h 31.094138 c 0,-17.31641 -13.91964,-31.35579 -31.094138,-31.35579 -17.170056,0 -31.094121,14.03938 -31.094121,31.35579 0,17.32081 13.924065,31.36018 31.094121,31.36018 17.174498,0 31.094138,-14.03937 31.094138,-31.36018 H 98.677182"
       style="fill:#ffd400;fill-opacity:1;fill-rule:evenodd;stroke:none"
       id="path3012" />
    <path
       d="m 98.677182,135.31781 h 30.508768 c 0,-16.9927 -13.65796,-30.766 -30.508768,-30.766 -16.846344,0 -30.508778,13.7733 -30.508778,30.766 0,16.99268 13.662434,30.77043 30.508778,30.77043 16.850808,-0.004 30.508768,-13.77775 30.508768,-30.77043 H 98.677182"
       style="fill:#ffd400;fill-opacity:1;fill-rule:evenodd;stroke:none"
       id="path3014" />
    <path
       d="m 98.677182,135.31781 h 29.923468 c 0,-16.66454 -13.39639,-30.17176 -29.923468,-30.17176 -16.522632,0 -29.919001,13.50722 -29.919001,30.17176 0,16.66452 13.396369,30.17618 29.919001,30.17618 16.527078,0 29.923468,-13.51166 29.923468,-30.17618 H 98.677182"
       style="fill:#ffd400;fill-opacity:1;fill-rule:evenodd;stroke:none"
       id="path3016" />
    <path
       d="m 98.677182,135.31781 h 29.338128 c 0,-16.3364 -13.13475,-29.582 -29.338128,-29.582 -16.198919,0 -29.333658,13.2456 -29.333658,29.582 0,16.3408 13.134739,29.5864 29.333658,29.5864 16.203378,0 29.338128,-13.2456 29.338128,-29.5864 H 98.677182"
       style="fill:#ffd400;fill-opacity:1;fill-rule:evenodd;stroke:none"
       id="path3018" />
    <path
       d="m 98.677182,135.31781 h 28.748328 c 0,-16.0127 -12.86872,-28.9878 -28.748328,-28.9878 -15.875207,0 -28.748315,12.97955 -28.748315,28.9878 0,16.01264 12.873104,28.9922 28.748315,28.9922 15.879608,0 28.748328,-12.97956 28.748328,-28.9922 H 98.677182"
       style="fill:#ffd600;fill-opacity:1;fill-rule:evenodd;stroke:none"
       id="path3020" />
    <path
       d="m 98.677182,135.31781 h 28.162988 c 0,-15.68455 -12.60707,-28.398 -28.162988,-28.398 -15.551495,0 -28.158538,12.71345 -28.158538,28.398 0,15.68449 12.607043,28.40239 28.158538,28.40239 15.555918,0 28.162988,-12.7179 28.162988,-28.40239 H 98.677182"
       style="fill:#ffd600;fill-opacity:1;fill-rule:evenodd;stroke:none"
       id="path3022" />
    <path
       d="m 98.677182,135.31781 h 27.577598 c 0,-15.35642 -12.34982,-27.80824 -27.577598,-27.80824 -15.227783,0 -27.573195,12.45182 -27.573195,27.80824 0,15.36081 12.345412,27.80819 27.573195,27.80819 15.232228,0 27.577598,-12.44738 27.577598,-27.80819 H 98.677182"
       style="fill:#ffd600;fill-opacity:1;fill-rule:evenodd;stroke:none"
       id="path3024" />
    <path
       d="m 98.677182,135.31781 h 26.987848 c 0,-15.02827 -12.08377,-27.21404 -26.987848,-27.21404 -14.90407,-0.004 -26.987851,12.18577 -26.987851,27.21404 0,15.03266 12.083781,27.21844 26.987851,27.21844 14.904078,0 26.987848,-12.18578 26.987848,-27.21844 H 98.677182"
       style="fill:#ffd800;fill-opacity:1;fill-rule:evenodd;stroke:none"
       id="path3026" />
    <path
       d="m 98.677182,135.31781 h 26.402538 c 0,-14.70453 -11.81778,-26.62424 -26.402538,-26.62424 -14.580357,0 -26.398077,11.91971 -26.398077,26.62424 0,14.70893 11.81772,26.62863 26.398077,26.62863 14.584798,0 26.402538,-11.9197 26.402538,-26.62863 H 98.677182"
       style="fill:#ffd800;fill-opacity:1;fill-rule:evenodd;stroke:none"
       id="path3028" />
    <path
       d="m 98.677182,135.31781 h 25.817208 c 0,-14.37638 -11.56055,-26.03002 -25.817208,-26.03002 -14.256646,0 -25.812733,11.65364 -25.812733,26.03002 0,14.37637 11.556084,26.03442 25.812733,26.03442 14.256658,0 25.817208,-11.65365 25.817208,-26.03442 H 98.677182"
       style="fill:#ffd803;fill-opacity:1;fill-rule:evenodd;stroke:none"
       id="path3030" />
    <path
       d="m 98.677182,135.31781 h 25.227398 c 0,-14.04824 -11.29444,-25.44028 -25.227398,-25.44028 -13.932934,0 -25.227389,11.39204 -25.227389,25.44028 0,14.05263 11.294455,25.44466 25.227389,25.44466 13.932958,0 25.227398,-11.39203 25.227398,-25.44466 H 98.677182"
       style="fill:#ffd80d;fill-opacity:1;fill-rule:evenodd;stroke:none"
       id="path3032" />
    <path
       d="m 98.677182,135.31781 h 24.642028 c 0,-13.72455 -11.03279,-24.84606 -24.642028,-24.84606 -13.609221,-0.004 -24.637612,11.12597 -24.637612,24.84606 0,13.72448 11.028391,24.85045 24.637612,24.85045 13.609238,0 24.642028,-11.12597 24.642028,-24.85045 H 98.677182"
       style="fill:#ffd919;fill-opacity:1;fill-rule:evenodd;stroke:none"
       id="path3034" />
    <path
       d="m 98.677182,135.31781 h 24.056708 c 0,-13.3964 -10.77121,-24.25626 -24.056708,-24.25626 -13.285508,0 -24.05227,10.85986 -24.05227,24.25626 0,13.40079 10.766762,24.26066 24.05227,24.26066 13.285498,0 24.056708,-10.85987 24.056708,-24.26066 H 98.677182"
       style="fill:#ffd91d;fill-opacity:1;fill-rule:evenodd;stroke:none"
       id="path3036" />
    <path
       d="m 98.677182,135.31781 h 23.471368 c 0,-13.06826 -10.50956,-23.6665 -23.471368,-23.6665 -12.961796,0 -23.466927,10.59824 -23.466927,23.6665 0,13.07265 10.505131,23.6709 23.466927,23.6709 12.961808,-0.004 23.471368,-10.59825 23.471368,-23.6709 H 98.677182"
       style="fill:#ffdc26;fill-opacity:1;fill-rule:evenodd;stroke:none"
       id="path3038" />
    <path
       d="m 98.677182,135.31781 h 22.881578 c 0,-12.74451 -10.2435,-23.0723 -22.881578,-23.0723 -12.633648,0 -22.877148,10.33219 -22.877148,23.0723 0,12.7445 10.2435,23.07669 22.877148,23.07669 12.638078,0 22.881578,-10.33219 22.881578,-23.07669 H 98.677182"
       style="fill:#ffdc2b;fill-opacity:1;fill-rule:evenodd;stroke:none"
       id="path3040" />
    <path
       d="m 98.677182,135.31781 h 22.296258 c 0,-12.41637 -9.98189,-22.4825 -22.296258,-22.4825 -12.309938,0 -22.291807,10.06613 -22.291807,22.4825 0,12.41635 9.981869,22.4869 22.291807,22.4869 12.314368,0 22.296258,-10.06613 22.296258,-22.4869 H 98.677182"
       style="fill:#ffdc32;fill-opacity:1;fill-rule:evenodd;stroke:none"
       id="path3042" />
    <path
       d="m 98.677182,135.31781 h 21.710928 c 0,-12.08823 -9.72025,-21.88829 -21.710928,-21.88829 -11.986224,0 -21.706464,9.80006 -21.706464,21.88829 0,12.09263 9.720236,21.8927 21.706464,21.8927 11.990678,0 21.710928,-9.80007 21.710928,-21.8927 H 98.677182"
       style="fill:#ffdc39;fill-opacity:1;fill-rule:evenodd;stroke:none"
       id="path3044" />
    <path
       d="M 98.677182,135.31781 H 119.7983 c 0,-11.76008 -9.4542,-21.29852 -21.121118,-21.29852 -11.662512,0 -21.121121,9.53844 -21.121121,21.29852 0,11.76447 9.458609,21.30292 21.121121,21.30292 11.666918,0 21.121118,-9.53845 21.121118,-21.30292 H 98.677182"
       style="fill:#ffdc3d;fill-opacity:1;fill-rule:evenodd;stroke:none"
       id="path3046" />
    <path
       d="m 98.677182,135.31781 h 20.535748 c 0,-11.43639 -9.19248,-20.70873 -20.535748,-20.70873 -11.3388,0 -20.531343,9.27234 -20.531343,20.70873 0,11.44078 9.192543,20.7087 20.531343,20.7087 11.343268,0 20.535748,-9.26792 20.535748,-20.7087 H 98.677182"
       style="fill:#ffde43;fill-opacity:1;fill-rule:evenodd;stroke:none"
       id="path3048" />
    <path
       d="m 98.677182,135.31781 h 19.950408 c 0,-11.10825 -8.93091,-20.11451 -19.950408,-20.11451 -11.015088,0 -19.946001,9.00626 -19.946001,20.11451 0,11.11264 8.930913,20.11891 19.946001,20.11891 11.019498,0 19.950408,-9.00627 19.950408,-20.11891 H 98.677182"
       style="fill:#ffde46;fill-opacity:1;fill-rule:evenodd;stroke:none"
       id="path3050" />
    <path
       d="m 98.677182,135.31781 h 19.360668 c 0,-10.78008 -8.66483,-19.52475 -19.360668,-19.52475 -10.691376,0 -19.360657,8.74467 -19.360657,19.52475 0,10.78448 8.669281,19.5247 19.360657,19.5247 10.695838,0 19.360668,-8.74022 19.360668,-19.5247 H 98.677182"
       style="fill:#ffe04c;fill-opacity:1;fill-rule:evenodd;stroke:none"
       id="path3052" />
    <path
       d="m 98.677182,135.31781 h 18.775298 c 0,-10.45636 -8.40765,-18.93055 -18.775298,-18.93055 -10.367662,0 -18.77088,8.47419 -18.77088,18.93055 0,10.45635 8.403218,18.93494 18.77088,18.93494 10.367648,0 18.775298,-8.47859 18.775298,-18.93494 H 98.677182"
       style="fill:#ffe04f;fill-opacity:1;fill-rule:evenodd;stroke:none"
       id="path3054" />
    <path
       d="m 98.677182,135.31781 h 18.189988 c 0,-10.12822 -8.14602,-18.34075 -18.189988,-18.34075 -10.043951,0 -18.185538,8.21253 -18.185538,18.34075 0,10.13262 8.141587,18.34514 18.185538,18.34514 10.043968,0 18.189988,-8.21252 18.189988,-18.34514 H 98.677182"
       style="fill:#ffe155;fill-opacity:1;fill-rule:evenodd;stroke:none"
       id="path3056" />
    <path
       d="m 98.677182,135.31781 h 17.600158 c 0,-9.80452 -7.87992,-17.74655 -17.600158,-17.74655 -9.720239,0 -17.600195,7.94648 -17.600195,17.74655 0,9.80445 7.879956,17.75094 17.600195,17.75094 9.720238,0 17.600158,-7.94649 17.600158,-17.75094 H 98.677182"
       style="fill:#ffe15a;fill-opacity:1;fill-rule:evenodd;stroke:none"
       id="path3058" />
    <path
       d="m 98.677182,135.31781 h 17.014868 c 0,-9.47638 -7.61838,-17.15679 -17.014868,-17.15679 -9.396526,0 -17.014852,7.68041 -17.014852,17.15679 0,9.47631 7.618326,17.16118 17.014852,17.16118 9.396488,0 17.014868,-7.68487 17.014868,-17.16118 H 98.677182"
       style="fill:#ffe35e;fill-opacity:1;fill-rule:evenodd;stroke:none"
       id="path3060" />
    <path
       d="m 98.677182,135.31781 h 16.429478 c 0,-9.14823 -7.35668,-16.56257 -16.429478,-16.56257 -9.072813,-0.004 -16.425075,7.41434 -16.425075,16.56257 0,9.15262 7.352262,16.56696 16.425075,16.56696 9.072838,0 16.429478,-7.41434 16.429478,-16.56696 H 98.677182"
       style="fill:#ffe360;fill-opacity:1;fill-rule:evenodd;stroke:none"
       id="path3062" />
    <path
       d="m 98.677182,135.31781 h 15.839768 c 0,-8.82009 -7.09067,-15.97277 -15.839768,-15.97277 -8.749102,0 -15.839732,7.15268 -15.839732,15.97277 0,8.82448 7.09063,15.97717 15.839732,15.97717 8.749098,0 15.839768,-7.15269 15.839768,-15.97717 H 98.677182"
       style="fill:#ffe365;fill-opacity:1;fill-rule:evenodd;stroke:none"
       id="path3064" />
    <path
       d="m 98.677182,135.31781 h 15.254408 c 0,-8.49635 -6.82902,-15.37857 -15.254408,-15.37857 -8.425389,-0.004 -15.254389,6.88664 -15.254389,15.37857 0,8.49633 6.829,15.38741 15.254389,15.38741 8.425428,-0.004 15.254408,-6.89108 15.254408,-15.38741 H 98.677182"
       style="fill:#ffe568;fill-opacity:1;fill-rule:evenodd;stroke:none"
       id="path3066" />
    <path
       d="m 98.677182,135.31781 h 14.669068 c 0,-8.16821 -6.56738,-14.78881 -14.669068,-14.78881 -8.097243,0 -14.66461,6.6206 -14.66461,14.78881 0,8.17259 6.567367,14.7932 14.66461,14.7932 8.101688,0 14.669068,-6.62061 14.669068,-14.7932 H 98.677182"
       style="fill:#ffe56d;fill-opacity:1;fill-rule:evenodd;stroke:none"
       id="path3068" />
    <path
       d="m 98.677182,135.31781 h 14.083728 c 0,-7.84005 -6.30574,-14.19901 -14.083728,-14.19901 -7.773529,0 -14.079269,6.35896 -14.079269,14.19901 0,7.84444 6.30574,14.2034 14.079269,14.2034 7.777988,0 14.083728,-6.35896 14.083728,-14.2034 H 98.677182"
       style="fill:#ffe572;fill-opacity:1;fill-rule:evenodd;stroke:none"
       id="path3070" />
    <path
       d="m 98.677182,135.31781 h 13.493928 c 0,-7.51636 -6.03967,-13.60481 -13.493928,-13.60481 -7.449818,0 -13.493926,6.0929 -13.493926,13.60481 0,7.5163 6.044108,13.6092 13.493926,13.6092 7.454218,0 13.493928,-6.0929 13.493928,-13.6092 H 98.677182"
       style="fill:#ffe674;fill-opacity:1;fill-rule:evenodd;stroke:none"
       id="path3072" />
    <path
       d="m 98.677182,135.31781 h 12.908598 c 0,-7.18823 -5.77802,-13.01503 -12.908598,-13.01503 -7.126105,0 -12.904149,5.8268 -12.904149,13.01503 0,7.19262 5.778044,13.01944 12.904149,13.01944 7.130578,0 12.908598,-5.82682 12.908598,-13.01944 H 98.677182"
       style="fill:#ffe879;fill-opacity:1;fill-rule:evenodd;stroke:none"
       id="path3074" />
    <path
       d="m 98.677182,135.31781 h 12.323238 c 0,-6.86007 -5.51643,-12.42524 -12.323238,-12.42524 -6.802393,0 -12.318807,5.56517 -12.318807,12.42524 0,6.86446 5.516414,12.42521 12.318807,12.42521 6.806808,0 12.323238,-5.56075 12.323238,-12.42521 H 98.677182"
       style="fill:#ffe87b;fill-opacity:1;fill-rule:evenodd;stroke:none"
       id="path3076" />
    <path
       d="m 98.677182,135.31781 h 11.733498 c 0,-6.53193 -5.25036,-11.83103 -11.733498,-11.83103 -6.478681,0 -11.733463,5.2991 -11.733463,11.83103 0,6.53632 5.254782,11.83543 11.733463,11.83543 6.483138,0 11.733498,-5.29911 11.733498,-11.83543 H 98.677182"
       style="fill:#ffe87f;fill-opacity:1;fill-rule:evenodd;stroke:none"
       id="path3078" />
    <path
       d="m 98.677182,135.31781 h 11.148108 c 0,-6.20819 -4.98873,-11.24127 -11.148108,-11.24127 -6.154967,0 -11.148119,5.03308 -11.148119,11.24127 0,6.20817 4.993152,11.24567 11.148119,11.24567 6.159378,0 11.148108,-5.03308 11.148108,-11.24567 H 98.677182"
       style="fill:#ffea82;fill-opacity:1;fill-rule:evenodd;stroke:none"
       id="path3080" />
    <path
       d="m 98.677182,135.31781 h 10.562808 c 0,-5.88004 -4.7271,-10.64706 -10.562808,-10.64706 -5.831257,0 -10.558344,4.76702 -10.558344,10.64706 0,5.88444 4.727087,10.65145 10.558344,10.65145 5.835708,0 10.562808,-4.76701 10.562808,-10.65145 H 98.677182"
       style="fill:#ffea85;fill-opacity:1;fill-rule:evenodd;stroke:none"
       id="path3082" />
    <path
       d="m 98.677182,135.31781 h 9.972968 c 0,-5.5519 -4.46102,-10.05725 -9.972968,-10.05725 -5.507543,0 -9.973001,4.50535 -9.973001,10.05725 0,5.55629 4.465458,10.06166 9.973001,10.06166 5.511948,0 9.972968,-4.50537 9.972968,-10.06166 h -9.972968"
       style="fill:#ffea89;fill-opacity:1;fill-rule:evenodd;stroke:none"
       id="path3084" />
    <path
       d="m 98.677182,135.31781 h 9.387668 c 0,-5.22821 -4.20382,-9.46305 -9.387668,-9.46305 -5.18383,-0.004 -9.387656,4.23484 -9.387656,9.46305 0,5.22815 4.203826,9.46745 9.387656,9.46745 5.183808,0 9.387668,-4.23485 9.387668,-9.46745 h -9.387668"
       style="fill:#ffea8c;fill-opacity:1;fill-rule:evenodd;stroke:none"
       id="path3086" />
    <path
       d="m 98.677182,135.31781 h 8.802288 c 0,-4.90006 -3.94215,-8.8733 -8.802288,-8.8733 -4.86012,0 -8.797879,3.97324 -8.797879,8.8733 0,4.90445 3.937759,8.87769 8.797879,8.87769 4.860138,0 8.802288,-3.97324 8.802288,-8.87769 h -8.802288"
       style="fill:#ffed90;fill-opacity:1;fill-rule:evenodd;stroke:none"
       id="path3088" />
    <path
       d="m 98.677182,135.31781 h 8.216968 c 0,-4.5719 -3.68057,-8.27907 -8.216968,-8.27907 -4.536406,-0.004 -8.212538,3.70717 -8.212538,8.27907 0,4.5763 3.676132,8.28348 8.212538,8.28348 4.536398,0 8.216968,-3.70718 8.216968,-8.28348 h -8.216968"
       style="fill:#ffed92;fill-opacity:1;fill-rule:evenodd;stroke:none"
       id="path3090" />
    <path
       d="m 98.677182,135.31781 h 7.627188 c 0,-4.24818 -3.41449,-7.68929 -7.627188,-7.68929 -4.212695,0 -7.627195,3.44111 -7.627195,7.68929 0,4.24816 3.4145,7.69369 7.627195,7.69369 4.212698,0 7.627188,-3.44553 7.627188,-7.69369 h -7.627188"
       style="fill:#ffed96;fill-opacity:1;fill-rule:evenodd;stroke:none"
       id="path3092" />
    <path
       d="m 98.677182,135.31781 h 7.041838 c 0,-3.92003 -3.15285,-7.09954 -7.041838,-7.09954 -3.888982,0 -7.037416,3.17951 -7.037416,7.09954 0,3.92444 3.148434,7.09947 7.037416,7.09947 3.888988,0 7.041838,-3.17503 7.041838,-7.09947 h -7.041838"
       style="fill:#ffed98;fill-opacity:1;fill-rule:evenodd;stroke:none"
       id="path3094" />
    <path
       d="m 98.677182,135.31781 h 6.456498 c 0,-3.59189 -2.89123,-6.50531 -6.456498,-6.50531 -3.560835,0 -6.452075,2.91342 -6.452075,6.50531 0,3.59629 2.89124,6.50971 6.452075,6.50971 3.565268,0 6.456498,-2.91338 6.456498,-6.50971 h -6.456498"
       style="fill:#ffef9c;fill-opacity:1;fill-rule:evenodd;stroke:none"
       id="path3096" />
    <path
       d="m 98.677182,135.31781 h 5.866708 c 0,-3.2682 -2.62516,-5.91552 -5.866708,-5.91552 -3.237122,0 -5.866732,2.64732 -5.866732,5.91552 0,3.26813 2.62961,5.91991 5.866732,5.91991 3.241548,0 5.866708,-2.65178 5.866708,-5.91991 h -5.866708"
       style="fill:#ffefa0;fill-opacity:1;fill-rule:evenodd;stroke:none"
       id="path3098" />
    <path
       d="m 98.677182,135.31781 h 5.281398 c 0,-2.94003 -2.36355,-5.32132 -5.281398,-5.32132 -2.913411,0 -5.281389,2.38129 -5.281389,5.32132 0,2.93999 2.367978,5.32571 5.281389,5.32571 2.917848,0 5.281398,-2.38572 5.281398,-5.32571 h -5.281398"
       style="fill:#fff0a2;fill-opacity:1;fill-rule:evenodd;stroke:none"
       id="path3100" />
    <path
       d="m 98.677182,135.31781 h 4.696048 c 0,-2.61189 -2.10191,-4.73155 -4.696048,-4.73155 -2.589698,0 -4.691612,2.11966 -4.691612,4.73155 0,2.61629 2.101914,4.73595 4.691612,4.73595 2.594138,0 4.696048,-2.11966 4.696048,-4.73595 h -4.696048"
       style="fill:#fff2a7;fill-opacity:1;fill-rule:evenodd;stroke:none"
       id="path3102" />
    <path
       d="m 98.677182,135.31781 h 4.106278 c 0,-2.28817 -1.83586,-4.14175 -4.106278,-4.14175 -2.265986,0 -4.106269,1.85798 -4.106269,4.14175 0,2.28816 1.840283,4.14173 4.106269,4.14173 2.270418,0 4.106278,-1.85357 4.106278,-4.14173 h -4.106278"
       style="fill:#fff3a9;fill-opacity:1;fill-rule:evenodd;stroke:none"
       id="path3104" />
    <path
       d="m 98.677182,135.31781 h 3.520928 c 0,-1.96002 -1.57422,-3.54755 -3.520928,-3.54755 -1.942274,0 -3.520925,1.58753 -3.520925,3.54755 0,1.96443 1.578647,3.55194 3.520925,3.55194 1.946708,0 3.520928,-1.58751 3.520928,-3.55194 h -3.520928"
       style="fill:#fff3ae;fill-opacity:1;fill-rule:evenodd;stroke:none"
       id="path3106" />
    <path
       d="m 98.677182,135.31781 h 2.935588 c 0,-1.63187 -1.31259,-2.95778 -2.935588,-2.95778 -1.618562,0 -2.931148,1.32591 -2.931148,2.95778 0,1.63626 1.312586,2.95771 2.931148,2.95771 1.622998,0 2.935588,-1.32145 2.935588,-2.95771 h -2.935588"
       style="fill:#fff3af;fill-opacity:1;fill-rule:evenodd;stroke:none"
       id="path3108" />
    <path
       d="m 98.677182,135.31781 h 2.345808 c 0,-1.30818 -1.046524,-2.36357 -2.345808,-2.36357 -1.294848,0 -2.345805,1.05984 -2.345805,2.36357 0,1.30812 1.050957,2.36796 2.345805,2.36796 1.299284,0 2.345808,-1.05984 2.345808,-2.36796 h -2.345808"
       style="fill:#fff5b4;fill-opacity:1;fill-rule:evenodd;stroke:none"
       id="path3110" />
    <path
       d="m 98.677182,135.31781 h 1.760468 c 0,-0.98003 -0.784898,-1.77378 -1.760468,-1.77378 -0.971136,0 -1.760462,0.79375 -1.760462,1.77378 0,0.97997 0.789326,1.77818 1.760462,1.77818 0.97557,0 1.760468,-0.79375 1.760468,-1.77818 h -1.760468"
       style="fill:#fff5b6;fill-opacity:1;fill-rule:evenodd;stroke:none"
       id="path3112" />
    <path
       d="m 98.677182,135.31781 h 1.17512 c 0,-0.6519 -0.527696,-1.17956 -1.17512,-1.17956 -0.647425,-0.004 -1.17512,0.52766 -1.17512,1.17956 0,0.65629 0.527695,1.18395 1.17512,1.18395 0.647424,0 1.17512,-0.52766 1.17512,-1.18395 h -1.17512"
       style="fill:#fffabc;fill-opacity:1;fill-rule:evenodd;stroke:none"
       id="path3114" />
    <path
       d="m 98.677182,135.31781 h 0.585343 c 0,-0.32399 -0.261649,-0.58981 -0.585343,-0.58981 -0.32373,0 -0.585342,0.26606 -0.585342,0.58981 0,0.32832 0.261648,0.5942 0.585342,0.5942 0.323694,0 0.585343,-0.26606 0.585343,-0.5942 h -0.585343"
       style="fill:#fffac0;fill-opacity:1;fill-rule:evenodd;stroke:none"
       id="path3116" />
    <path
       d="m 123.43009,147.25523 c 2.29702,8.35887 17.17892,-4.05304 26.97901,-3.37461 -3.9644,25.89703 -25.61768,45.70556 -51.731918,45.70556 -13.019444,0 -24.934718,-4.92661 -34.100656,-13.07711 -0.354752,-1.32587 -0.545431,-2.63406 -0.545431,-3.90671 0,-12.82432 7.675972,-18.10128 12.261157,-23.6931 7.596154,-0.55872 15.192309,1.01105 22.792897,6.14169 8.323361,-5.61843 16.646821,-6.96649 24.970201,-5.91998 l -0.62526,-1.87574"
       style="fill:#231f20;fill-opacity:1;fill-rule:evenodd;stroke:none"
       id="path3118" />
    <path
       d="m 123.43009,147.25523 c 2.29702,8.35887 17.17892,-4.05304 26.97901,-3.37461 m -85.832574,32.62845 c -0.354752,-1.32587 -0.545431,-2.63406 -0.545431,-3.90671 0,-12.82432 7.675972,-18.10128 12.261157,-23.6931 7.596154,-0.55872 15.192309,1.01105 22.792897,6.14169 8.323361,-5.61843 16.646781,-6.96649 24.970171,-5.91998 l -0.62523,-1.87574"
       style="fill:none;stroke:#231f20;stroke-width:0.430138;stroke-linecap:butt;stroke-linejoin:miter;stroke-miterlimit:2.613;stroke-dasharray:none;stroke-opacity:1"
       id="path3120" />
    <path
       d="m 48.151448,149.6587 c 7.897694,-0.004 16.008241,1.2239 24.779513,6.3146 2.110787,-0.0709 4.150618,0.22589 6.030809,1.33033 6.239223,-1.03323 11.693555,-0.9401 16.793132,-0.33703 l 0.368057,0.071 c -2.376848,1.13962 -4.753694,2.26597 -7.330089,2.61185 2.700559,4.25263 6.221486,3.4145 11.99953,1.9068 3.34352,-1.29484 6.68707,-0.90017 9.16592,0.0887 2.11964,1.16627 4.39008,1.78708 6.88225,1.69393 l -1.18842,1.09087 10.04394,7.54297 0.18172,0.23926 c 2.00881,2.82031 -0.12895,5.27252 -3.22384,3.69386 l -10.59822,-7.14382 8.97971,6.51858 c 4.70047,4.11069 0.49219,7.01971 -2.89125,4.54085 l -7.00195,-5.0375 5.35677,4.38119 c 3.78259,3.37017 0.25303,6.257 -2.76261,4.30586 l -4.64285,-2.61191 5.03307,4.76257 -4.02645,1.74715 -29.506626,-8.97079 -5.707093,-3.3214 -6.518592,-0.83366 -4.079661,-0.164 -3.840205,-1.67174 C 54.70988,166.06594 50.430669,158.29239 48.151379,149.66302 v -0.004"
       style="fill:#ffeebc;fill-opacity:1;fill-rule:evenodd;stroke:none"
       id="path3122" />
    <g
       id="g3124"
       transform="matrix(4.4157555,0,0,-4.4531556,-315.55932,3679.1563)">
      <path
         d="m 87.95,791.182 -1.03,-4.119 m 1.37,-0.17 1.173,3.993"
         style="fill:none;stroke:#231f20;stroke-width:0.225;stroke-linecap:butt;stroke-linejoin:miter;stroke-miterlimit:2.613;stroke-dasharray:none;stroke-opacity:1"
         id="path3126" />
    </g>
    <g
       id="g3128"
       transform="matrix(4.3929894,0,0,-4.4762322,-315.55932,3679.1563)">
      <path
         d="m 82.793,788.497 c 1.798,0.002 3.645,-0.272 5.641,-1.41 0.48,0.016 0.944,-0.051 1.373,-0.297 1.421,0.23 2.662,0.21 3.823,0.075 l 0.083,-0.016 c -0.541,-0.255 -1.082,-0.506 -1.668,-0.583 0.615,-0.95 1.416,-0.763 2.732,-0.426 0.76,0.289 1.522,0.201 2.086,-0.02 0.483,-0.261 0.999,-0.4 1.566,-0.379 l -0.27,-0.243 2.286,-1.685 0.042,-0.054 c 0.457,-0.63 -0.03,-1.178 -0.734,-0.825 l -2.412,1.595 2.044,-1.456 c 1.069,-0.918 0.112,-1.567 -0.659,-1.014 l -1.593,1.125 1.218,-0.978 c 0.862,-0.753 0.058,-1.398 -0.628,-0.962 l -1.057,0.583 1.146,-1.063 -0.917,-0.391 -6.717,2.004 -1.298,0.742 -1.485,0.186 -0.928,0.037 -0.875,0.373 m -2.799,5.082 v 0"
         style="fill:none;stroke:#231f20;stroke-width:0.272;stroke-linecap:round;stroke-linejoin:round;stroke-miterlimit:2.613;stroke-dasharray:none;stroke-opacity:1"
         id="path3130" />
    </g>
    <path
       d="m 88.79287,159.64941 c 3.711607,-0.50106 7.010812,-2.61184 10.491824,-4.06633 3.569706,-1.40572 7.143876,-1.45008 10.718006,-0.88246 l 12.40751,1.49441 c 8.77124,-3.47217 19.05911,-8.49635 27.96782,-12.10597 -1.58751,10.0883 -5.85342,19.24538 -12.02168,26.65527 l -3.13513,-0.26173 -6.28801,1.09087 -2.96224,0.60309 -10.31882,-7.7469 1.18842,-1.09088 c -2.49213,0.0933 -4.76257,-0.52771 -6.88225,-1.69395 -2.47885,-0.98889 -5.8224,-1.38354 -9.16592,-0.0887 -5.778044,1.50771 -9.298971,2.34579 -11.99953,-1.90679"
       style="fill:#ffeebc;fill-opacity:1;fill-rule:evenodd;stroke:none"
       id="path3132" />
    <g
       id="g3134"
       transform="matrix(4.4157555,0,0,-4.4531556,-315.55932,3679.1563)">
      <path
         d="m 100.555,791.682 1.383,-3.8 m -1.376,-0.239 -1.43,3.479"
         style="fill:none;stroke:#231f20;stroke-width:0.225;stroke-linecap:butt;stroke-linejoin:miter;stroke-miterlimit:2.613;stroke-dasharray:none;stroke-opacity:1"
         id="path3136" />
    </g>
    <g
       id="g3138"
       transform="matrix(4.4157555,0,0,-4.4531556,-315.55932,3679.1563)">
      <path
         d="m 91.57,790.34 c 0.84,0.112 1.588,0.586 2.376,0.913 0.808,0.316 1.618,0.326 2.428,0.199 l 2.81,-0.336 c 1.986,0.78 4.316,1.908 6.333,2.718 m -2.722,-5.985 -0.711,0.059 -1.423,-0.245 -0.671,-0.136 -2.337,1.74 0.269,0.245 c -0.565,-0.021 -1.078,0.118 -1.558,0.38 -0.562,0.222 -1.319,0.311 -2.076,0.02 -1.309,-0.339 -2.106,-0.527 -2.718,0.428"
         style="fill:none;stroke:#231f20;stroke-width:0.225;stroke-linecap:round;stroke-linejoin:round;stroke-miterlimit:2.613;stroke-dasharray:none;stroke-opacity:1"
         id="path3140" />
    </g>
    <path
       d="m 76.46076,184.47328 12.917453,-14.1768 c 3.339115,-3.88902 9.445305,-2.19507 5.223742,3.49873 l -9.924222,13.82654 c -2.842461,-0.81598 -5.591802,-1.87136 -8.216973,-3.14847 z m 8.318964,3.17949 9.334446,-12.20351 3.489885,-4.75369 c 2.478835,-3.66282 7.312365,-4.49208 4.780295,2.00877 -0.66516,1.72055 -1.62743,3.25044 -2.554219,4.83351 l -6.846738,11.72905 c -2.806989,-0.31494 -5.547457,-0.86028 -8.203672,-1.61413 z m 8.252446,1.61857 8.52738,-12.63807 1.14852,-1.68954 c 0.75829,-1.12634 1.56978,-2.81583 2.76267,-3.5165 0.9401,-0.54987 1.91566,-0.3725 2.2172,0.62973 0.3991,1.33027 -0.44344,2.80696 -0.92235,4.00425 l -6.60288,13.48063 5.5785,-10.11934 c 3.01542,-5.05966 6.38111,-2.46108 3.4145,4.7404 l -1.79595,4.6783 c -2.82474,0.48779 -5.72481,0.74498 -8.682578,0.74498 -1.906799,0 -3.791424,-0.10633 -5.645012,-0.31493"
       style="fill:#ffeebc;fill-opacity:1;fill-rule:evenodd;stroke:none"
       id="path3142" />
    <g
       id="g3144"
       transform="matrix(4.4157555,0,0,-4.4531556,-315.55932,3679.1563)">
      <path
         d="m 88.778,784.766 2.925,3.183 c 0.756,0.874 2.139,0.493 1.183,-0.785 l -2.248,-3.106 m 0.023,-0.006 2.114,2.74 0.79,1.068 c 0.562,0.822 1.657,1.009 1.083,-0.451 -0.151,-0.386 -0.369,-0.731 -0.578,-1.086 l -1.551,-2.634 m 0.012,-10e-4 1.93,2.838 0.26,0.38 c 0.173,0.252 0.356,0.632 0.626,0.789 0.213,0.123 0.434,0.084 0.502,-0.141 0.09,-0.299 -0.1,-0.63 -0.208,-0.899 l -1.496,-3.028 1.264,2.273 c 0.683,1.136 1.444,0.553 0.773,-1.065 l -0.407,-1.05"
         style="fill:none;stroke:#231f20;stroke-width:0.225;stroke-linecap:butt;stroke-linejoin:miter;stroke-miterlimit:2.613;stroke-dasharray:none;stroke-opacity:1"
         id="path3146" />
    </g>
    <path
       d="m 79.187926,139.78322 c -3.130697,-0.75824 -5.135057,-0.23962 -7.644936,0.40799 -1.095302,0.2838 -2.288155,0.5942 -3.71604,0.83811 -1.498829,0.25738 -3.015398,0.41684 -4.536408,0.439 -1.525437,0.0288 -3.055311,-0.084 -4.567443,-0.35475 -0.793761,-0.14626 -1.56535,-0.31495 -2.319201,-0.48333 -3.17504,-0.70064 -6.09289,-1.34362 -9.822228,0.38577 -0.03993,-0.42571 -0.07983,-0.85584 -0.110881,-1.28153 3.871241,-1.68508 6.899947,-1.01551 10.185849,-0.2925 0.736112,0.16434 1.494401,0.33232 2.274858,0.47448 1.44562,0.25737 2.895674,0.36361 4.341293,0.34172 1.454485,-0.0288 2.908973,-0.17738 4.354596,-0.42571 1.374669,-0.23493 2.549791,-0.5366 3.627353,-0.81593 2.665082,-0.69177 4.798038,-1.24165 8.208102,-0.41684 l -0.274934,1.18399"
       style="fill:#231f20;fill-opacity:1;fill-rule:evenodd;stroke:none"
       id="path3148" />
    <path
       d="m 79.227836,144.70543 c -3.130698,-0.75826 -5.139488,-0.23927 -7.644935,0.40798 h -0.0043 c -1.095301,0.28379 -2.288159,0.59421 -3.716043,0.83812 -1.49883,0.25738 -3.010967,0.41683 -4.531972,0.43898 -1.529877,0.0219 -3.055312,-0.0844 -4.567447,-0.35909 -0.798195,-0.1419 -1.565348,-0.31493 -2.323633,-0.47892 -2.993232,-0.6607 -5.755872,-1.26823 -9.188109,0.11088 -0.07541,-0.40796 -0.146355,-0.81594 -0.212854,-1.2239 3.622919,-1.40573 6.518596,-0.76717 9.653727,-0.0753 0.73611,0.16399 1.489961,0.33232 2.274852,0.4745 1.445618,0.26136 2.900112,0.36362 4.345728,0.34135 1.450053,-0.0254 2.908976,-0.17737 4.354595,-0.42569 1.370239,-0.23493 2.540923,-0.53655 3.618487,-0.81594 v -0.004 c 2.669515,-0.68732 4.802472,-1.23719 8.212534,-0.40798 l -0.270529,1.17978"
       style="fill:#231f20;fill-opacity:1;fill-rule:evenodd;stroke:none"
       id="path3150" />
    <path
       d="m 79.263311,149.62765 c -3.130701,-0.75828 -5.135056,-0.2393 -7.644935,0.40795 -1.0953,0.28381 -2.283725,0.59421 -3.720476,0.83812 -1.494396,0.25703 -3.010967,0.41685 -4.527538,0.439 -1.529874,0.029 -3.059747,-0.084 -4.571882,-0.35475 -0.793761,-0.14624 -1.560911,-0.31494 -2.314765,-0.48338 -2.696126,-0.5942 -5.206005,-1.14849 -8.181496,-0.24362 -0.110882,-0.39464 -0.212853,-0.78932 -0.314825,-1.18842 3.210517,-0.97557 5.880035,-0.38577 8.749101,0.24832 0.736113,0.15965 1.489963,0.32834 2.27042,0.47006 1.445621,0.26172 2.900108,0.36362 4.341294,0.34135 1.454488,-0.0254 2.908977,-0.17737 4.354595,-0.42569 1.370234,-0.23059 2.540921,-0.53659 3.622918,-0.81594 2.669518,-0.69177 4.802471,-1.24164 8.212538,-0.41242 l -0.274935,1.17955"
       style="fill:#231f20;fill-opacity:1;fill-rule:evenodd;stroke:none"
       id="path3152" />
    <path
       d="m 118.06448,135.42422 c 3.31245,-1.29484 5.49864,-0.91793 8.24351,-0.4479 1.09537,0.18607 2.2882,0.39023 3.68944,0.50111 1.4678,0.11517 2.93117,0.12427 4.37233,-0.008 1.43234,-0.13285 2.86023,-0.40355 4.26149,-0.8514 0.7494,-0.23928 1.48552,-0.50552 2.20835,-0.76717 3.18395,-1.16182 6.11948,-2.2305 10.17255,-0.80706 0.018,0.43455 0.0254,0.87359 0.0362,1.31257 -3.91115,-1.51212 -6.74031,-0.48331 -9.80894,0.63856 -0.72723,0.26136 -1.4678,0.53658 -2.25268,0.78491 -1.47668,0.4656 -2.98438,0.75385 -4.50981,0.89575 -1.52541,0.14191 -3.05089,0.13322 -4.56745,0.0146 -1.43674,-0.11087 -2.66951,-0.32398 -3.80029,-0.51439 -2.55865,-0.43902 -4.60735,-0.78933 -7.61831,0.38578 l -0.42571,-1.13521"
       style="fill:#231f20;fill-opacity:1;fill-rule:evenodd;stroke:none"
       id="path3154" />
    <path
       d="m 118.60543,140.85636 c 3.30808,-1.29039 5.49867,-0.9179 8.23918,-0.44785 1.09974,0.18642 2.28816,0.39465 3.69385,0.50107 1.46781,0.11517 2.93118,0.12427 4.36793,-0.008 1.43671,-0.12856 2.86017,-0.40353 4.2659,-0.84696 0.7494,-0.23927 1.48551,-0.50998 2.20388,-0.77159 3.03315,-1.1086 5.84456,-2.12851 9.60496,-0.9933 -0.0217,0.42124 -0.0489,0.83808 -0.0801,1.25491 -3.56526,-1.14407 -6.23481,-0.16832 -9.12602,0.88247 -0.72279,0.26606 -1.46337,0.53654 -2.24824,0.78488 -1.47668,0.47004 -2.98882,0.7583 -4.51423,0.89574 -1.52102,0.1419 -3.04645,0.1372 -4.56303,0.018 -1.44116,-0.11556 -2.66952,-0.32398 -3.80029,-0.51882 -2.56312,-0.43901 -4.61181,-0.78931 -7.62276,0.38579 l -0.42127,-1.13521"
       style="fill:#231f20;fill-opacity:1;fill-rule:evenodd;stroke:none"
       id="path3156" />
    <path
       d="m 119.14198,146.28854 c 3.31253,-1.29042 5.50312,-0.91794 8.2436,-0.44789 1.09528,0.19077 2.28816,0.39469 3.68943,0.50556 1.47224,0.11517 2.93113,0.12426 4.37234,-0.008 1.4323,-0.13321 2.86018,-0.40797 4.26145,-0.85142 0.75385,-0.23964 1.48996,-0.50551 2.20835,-0.77157 2.7449,-0.99773 5.30799,-1.93341 8.55842,-1.25939 -0.0622,0.40797 -0.12415,0.81594 -0.19042,1.21948 -3.00654,-0.62082 -5.40112,0.25305 -7.96867,1.18398 -0.72723,0.26607 -1.46777,0.53658 -2.25268,0.78491 -1.4766,0.47005 -2.98434,0.75828 -4.50974,0.90017 -1.52543,0.13755 -3.05088,0.13285 -4.56745,0.0145 -1.43675,-0.11087 -2.6651,-0.32397 -3.79586,-0.51881 -2.56309,-0.43902 -4.61179,-0.78931 -7.62277,0.38579 l -0.42572,-1.13522"
       style="fill:#231f20;fill-opacity:1;fill-rule:evenodd;stroke:none"
       id="path3158" />
    <path
       d="m 130.95972,115.47377 0.0402,-0.0146 0.0362,0.0146 0.0146,-0.0326 c 1.46332,-0.61195 2.8646,-1.72055 3.011,-3.12626 0.11543,-2.14624 -2.08422,-4.08411 -3.05534,-7.20592 l -0.004,0.018 -0.008,-0.018 c -0.9667,3.12181 -3.17058,5.05968 -3.0553,7.20592 0.15096,1.40571 1.5476,2.51431 3.01541,3.12626 l 0.008,0.0326"
       style="fill:#71bf44;fill-opacity:1;fill-rule:evenodd;stroke:none"
       id="path3160" />
    <path
       d="m 133.41641,123.8238 0.0362,0.0146 0.018,0.0402 0.0288,-0.018 c 1.4545,0.58093 3.96877,0.50552 5.01531,-0.54542 1.52989,-1.69394 1.14854,-5.23259 2.55868,-8.53627 l -0.0219,0.0146 0.0145,-0.0254 c -2.79368,1.87132 -6.21706,2.27488 -7.57843,4.14175 -0.8381,1.2727 -0.68291,3.28592 -0.0533,4.88231 l -0.0145,0.0362"
       style="fill:#71bf44;fill-opacity:1;fill-rule:evenodd;stroke:none"
       id="path3162" />
    <path
       d="m 128.41878,123.8238 -0.0362,0.0146 -0.018,0.0402 -0.0326,-0.018 c -1.45005,0.58093 -3.96438,0.50552 -5.0109,-0.54542 -1.5254,-1.69394 -1.1485,-5.23259 -2.55864,-8.53627 l 0.0219,0.0146 -0.0145,-0.0254 c 2.78923,1.87132 6.21706,2.27488 7.57839,4.14175 0.83814,1.2727 0.68291,3.28592 0.0533,4.88231 l 0.0146,0.0362"
       style="fill:#71bf44;fill-opacity:1;fill-rule:evenodd;stroke:none"
       id="path3164" />
    <path
       d="m 133.41641,132.92321 0.0362,0.0145 0.018,0.0442 0.0288,-0.0219 c 1.4545,0.5809 3.96877,0.50995 5.01531,-0.54545 1.52989,-1.69394 1.14854,-5.22815 2.55868,-8.53623 l -0.0219,0.0146 0.0145,-0.0218 c -2.79368,1.86687 -6.21706,2.27482 -7.57843,4.14173 -0.8381,1.27266 -0.68291,3.28591 -0.0533,4.87786 l -0.0145,0.0362"
       style="fill:#71bf44;fill-opacity:1;fill-rule:evenodd;stroke:none"
       id="path3166" />
    <path
       d="m 128.41878,132.92321 -0.0362,0.0145 -0.018,0.0442 -0.0326,-0.0219 c -1.45005,0.5809 -3.96438,0.50995 -5.0109,-0.54545 -1.5254,-1.69394 -1.1485,-5.22815 -2.55864,-8.53623 l 0.0219,0.0146 -0.0145,-0.0218 c 2.78923,1.86687 6.21706,2.27482 7.57839,4.14173 0.83814,1.27266 0.68291,3.28591 0.0533,4.87786 l 0.0146,0.0362"
       style="fill:#71bf44;fill-opacity:1;fill-rule:evenodd;stroke:none"
       id="path3168" />
    <path
       d="m 130.42759,136.16034 h 1.1924 v -20.8812 h -1.1924 z"
       style="fill:#71bf44;fill-opacity:1;fill-rule:nonzero;stroke:none"
       id="path3170" />
    <path
       d="m 130.81341,124.12975 3.99096,-2.10191 0.54546,1.08199 -3.99099,2.09749 -0.54543,-1.07757"
       style="fill:#71bf44;fill-opacity:1;fill-rule:evenodd;stroke:none"
       id="path3172" />
    <path
       d="m 130.81341,125.20732 -3.98653,-2.09749 0.54541,-1.08199 3.98655,2.10191 -0.54543,1.07757"
       style="fill:#71bf44;fill-opacity:1;fill-rule:evenodd;stroke:none"
       id="path3174" />
    <path
       d="m 130.81341,133.30458 3.99096,-2.10192 0.54546,1.082 -3.99099,2.10192 -0.54543,-1.082"
       style="fill:#71bf44;fill-opacity:1;fill-rule:evenodd;stroke:none"
       id="path3176" />
    <path
       d="m 130.81341,134.38658 -3.98653,-2.10192 0.54541,-1.082 3.98655,2.10192 -0.54543,1.082"
       style="fill:#71bf44;fill-opacity:1;fill-rule:evenodd;stroke:none"
       id="path3178" />
    <path
       d="m 80.194538,130.98094 c 7.006375,-1.2993 13.218993,0.47447 18.890611,4.34127 v 19.72874 c -8.327833,-5.61843 -16.651231,-6.96649 -24.974629,-5.91998 l 6.084018,-18.15003"
       style="fill:#a7a9ac;fill-opacity:1;fill-rule:evenodd;stroke:none"
       id="path3180" />
    <g
       id="g3182"
       transform="matrix(0,-4.4300474,-4.4387879,0,-315.55932,3679.1563)">
      <path
         d="m 800.933,-89.158 c 0.294,-1.579 -0.106,-2.978 -0.98,-4.256 h -4.452 c 1.267,1.876 1.572,3.751 1.336,5.627 l 4.096,-1.371"
         style="fill:none;stroke:#231f20;stroke-width:0.601;stroke-linecap:butt;stroke-linejoin:miter;stroke-miterlimit:2.613;stroke-dasharray:none;stroke-opacity:1"
         id="path3184" />
    </g>
    <path
       d="m 117.97133,130.98094 c -7.00636,-1.2993 -13.21898,0.47447 -18.886181,4.34127 v 19.72874 c 8.323361,-5.61843 16.646821,-6.96649 24.970201,-5.91998 l -6.08402,-18.15003"
       style="fill:#a7a9ac;fill-opacity:1;fill-rule:evenodd;stroke:none"
       id="path3186" />
    <g
       id="g3188"
       transform="matrix(0,4.4300474,4.4387879,0,-315.55932,3679.1563)">
      <path
         d="m -800.933,97.669 c -0.293,-1.578 0.106,-2.978 0.98,-4.255 h 4.452 c -1.267,1.875 -1.572,3.751 -1.336,5.626 l -4.096,-1.371"
         style="fill:none;stroke:#231f20;stroke-width:0.601;stroke-linecap:butt;stroke-linejoin:miter;stroke-miterlimit:2.613;stroke-dasharray:none;stroke-opacity:1"
         id="path3190" />
    </g>
    <path
       d="m 80.194538,126.12082 c 7.006375,-1.2993 13.218993,0.47005 18.890611,4.34127 v 19.72428 c -8.327833,-5.61838 -16.651231,-6.96643 -24.974629,-5.91991 l 6.084018,-18.14564"
       style="fill:#ffffff;fill-opacity:1;fill-rule:evenodd;stroke:none"
       id="path3192" />
    <g
       id="g3194"
       transform="matrix(0,-4.4300474,-4.4387879,0,-315.55932,3679.1563)">
      <path
         d="m 802.031,-89.158 c 0.293,-1.579 -0.107,-2.978 -0.98,-4.256 h -4.453 c 1.268,1.876 1.572,3.751 1.336,5.627 l 4.097,-1.371"
         style="fill:none;stroke:#231f20;stroke-width:0.601;stroke-linecap:butt;stroke-linejoin:miter;stroke-miterlimit:2.613;stroke-dasharray:none;stroke-opacity:1"
         id="path3196" />
    </g>
    <path
       d="m 117.97133,126.12082 c -7.00636,-1.2993 -13.21898,0.47005 -18.886181,4.34127 v 19.72428 c 8.323361,-5.61838 16.646821,-6.96643 24.970201,-5.91991 l -6.08402,-18.14564"
       style="fill:#ffffff;fill-opacity:1;fill-rule:evenodd;stroke:none"
       id="path3198" />
    <g
       id="g3200"
       transform="matrix(0,4.4300474,4.4387879,0,-315.55932,3679.1563)">
      <path
         d="m -802.031,97.669 c -0.293,-1.578 0.107,-2.978 0.98,-4.255 h 4.453 c -1.268,1.875 -1.572,3.751 -1.336,5.626 l -4.097,-1.371"
         style="fill:none;stroke:#231f20;stroke-width:0.601;stroke-linecap:butt;stroke-linejoin:miter;stroke-miterlimit:2.613;stroke-dasharray:none;stroke-opacity:1"
         id="path3202" />
    </g>
    <path
       d="m 112.55688,133.05625 -0.42127,-0.21756 -0.40798,-0.24399 c -0.20814,-0.12427 -0.40791,-0.22587 -0.60749,-0.30588 l -0.38136,-0.1553 -0.9844,-0.35475 c -0.34136,-0.12856 -0.72283,-0.2085 -1.13967,-0.25701 -0.42125,-0.0442 -0.776,-0.0402 -1.06427,0.0146 -0.24396,0.0399 -0.43897,0.11088 -0.58536,0.20851 -0.34572,0.16831 -0.58974,0.46559 -0.73609,0.90016 -0.0362,0.22589 -0.0362,0.43457 -0.004,0.62527 l 0.0399,0.25738 0.13755,0.27909 0.15058,0.22588 0.0887,0.0887 1.27711,-0.22588 0.0844,0.51884 -1.27712,0.22588 0.99332,6.12395 -0.79379,0.1419 -0.99772,-6.12394 -1.32146,0.23492 -0.0844,-0.51439 1.36581,-0.24831 -0.0622,-0.10205 -0.15094,-0.31023 -0.1553,-0.3323 -0.0362,-0.20852 c -0.0362,-0.23058 -0.0442,-0.43014 -0.0254,-0.58978 0.0217,-0.16834 0.0887,-0.34137 0.20381,-0.52767 0.21755,-0.3725 0.52766,-0.66963 0.93122,-0.90462 0.2972,-0.15096 0.59862,-0.25305 0.92237,-0.31023 0.75826,-0.13323 1.65401,-0.0362 2.6828,0.29248 0.42569,0.13755 0.81152,0.28381 1.15294,0.44343 l 1.21061,0.5809 0.49221,0.31022 0.5144,0.29249 -1.01105,0.16834 z m 0.92682,0.3769 1.00217,6.12395 -0.79822,0.14191 -0.32797,-2.01324 -0.31059,0.28382 -0.30154,0.24831 -0.43898,0.22589 -0.46123,0.12426 c -0.58975,0.10204 -1.13965,0.0326 -1.64514,-0.22189 -0.27078,-0.1419 -0.47891,-0.29684 -0.63413,-0.47892 -0.0663,-0.0887 -0.12428,-0.18606 -0.17268,-0.2972 -0.0489,-0.11088 -0.0844,-0.23927 -0.10633,-0.38577 -0.0797,-0.49666 0.0442,-0.96671 0.38139,-1.40574 0.33702,-0.44785 0.78042,-0.71391 1.34361,-0.81592 l 0.27078,-0.0489 0.30624,-0.0145 0.26606,0.004 c 0.0974,-0.018 0.16833,-0.0326 0.20851,-0.0362 l 0.27911,0.66516 -0.17739,-0.0485 -0.14661,-0.0289 -0.42121,-0.0326 -0.41247,0.0326 c -0.21755,0.0402 -0.39908,0.10633 -0.54096,0.19077 -0.23528,0.11946 -0.41686,0.38579 -0.53654,0.78489 -0.0216,0.16435 -0.0288,0.32397 0,0.47892 0.10205,0.61193 0.43457,0.98443 1.00218,1.1219 0.26172,0.0146 0.46559,0.008 0.61634,-0.018 l 0.16435,-0.0326 0.27945,-0.10203 c 0.16434,-0.0533 0.30624,-0.1419 0.42125,-0.25738 0.30588,-0.19078 0.52322,-0.41683 0.64297,-0.68732 l -0.54546,-3.36574 -4.98869,0.89132 -0.0844,-0.53212 7.16601,-1.2771 0.0887,0.53212 -1.388,0.24364"
       style="fill:#231f20;fill-opacity:1;fill-rule:evenodd;stroke:none"
       id="path3204" />
    <path
       d="m 112.55688,133.05625 -0.42127,-0.21756 -0.40798,-0.24399 c -0.20814,-0.12427 -0.40791,-0.22587 -0.60749,-0.30588 l -0.38136,-0.1553 -0.9844,-0.35475 c -0.34136,-0.12856 -0.72283,-0.2085 -1.13967,-0.25701 -0.42125,-0.0442 -0.776,-0.0402 -1.06427,0.0146 -0.24396,0.0399 -0.43897,0.11088 -0.58536,0.20851 -0.34572,0.16831 -0.58974,0.46559 -0.73609,0.90016 0,0.22589 -0.004,0.43457 -0.004,0.62527 l 0.0399,0.25738 0.13755,0.27909 0.15058,0.22588 0.0887,0.0887 1.27711,-0.22588 0.0844,0.51884 -1.27712,0.22588 0.99332,6.12395 -0.79379,0.1419 -0.99772,-6.12394 -1.32146,0.23492 -0.0844,-0.51439 1.36581,-0.24831 -0.0622,-0.10205 -0.15094,-0.31023 -0.1553,-0.3323 -0.0362,-0.20852 c -0.0362,-0.23058 -0.0254,-0.43014 -0.0254,-0.58978 0,-0.16834 0.0887,-0.34137 0.20381,-0.52767 0.21755,-0.3725 0.52766,-0.66963 0.93122,-0.90462 0.2972,-0.15096 0.59862,-0.25305 0.92237,-0.31023 0.75826,-0.13323 1.65401,-0.0362 2.6828,0.29248 0.42569,0.13755 0.81152,0.28381 1.15294,0.44343 l 1.21061,0.5809 0.49221,0.31022 0.5144,0.29249 -1.01105,0.16834 m 0.92681,0.37695 1.00216,6.1239 -0.79818,0.1419 -0.32833,-2.01321 -0.31023,0.28379 -0.30155,0.24833 -0.43901,0.22589 -0.46118,0.12427 c -0.58975,0.10204 -1.13963,0.0326 -1.64514,-0.2219 -0.27079,-0.1419 -0.47892,-0.29683 -0.63416,-0.47892 -0.0662,-0.0887 -0.12414,-0.18607 -0.17268,-0.29719 -0.0489,-0.11089 -0.10633,-0.23929 -0.10633,-0.38579 -0.0797,-0.49664 0.0446,-0.9667 0.38137,-1.40572 0.33702,-0.44786 0.78045,-0.71392 1.34361,-0.81594 l 0.27077,-0.0489 0.30624,-0.0146 0.26607,0.004 0.20851,-0.0362 0.27909,0.66516 -0.17738,-0.0485 -0.1466,-0.0288 -0.4213,-0.0326 -0.41237,0.0326 c -0.21756,0.0403 -0.39909,0.10647 -0.541,0.19078 -0.23529,0.11946 -0.41684,0.38577 -0.53658,0.78487 0,0.16435 0,0.32398 0,0.47892 0.10204,0.61195 0.43458,0.98444 1.00218,1.12193 0.26171,0.0145 0.46562,0.008 0.6164,-0.018 l 0.16434,-0.0326 0.27911,-0.10204 c 0.16433,-0.0533 0.30624,-0.1419 0.42125,-0.25736 0.30588,-0.19078 0.52325,-0.41683 0.643,-0.68731 l -0.54546,-3.36576 -4.98868,0.89133 -0.084,-0.53212 7.16603,-1.2771 0.0887,0.53213 -1.38796,0.24361"
       style="fill:none;stroke:#231f20;stroke-width:0.430138;stroke-linecap:butt;stroke-linejoin:miter;stroke-miterlimit:2.613;stroke-dasharray:none;stroke-opacity:1"
       id="path3206" />
    <path
       d="m 90.469079,133.89879 -0.37249,1.66733 -3.117395,-0.70063 -0.0532,0.0446 -0.05763,0.0533 -0.03992,0.17737 0.02679,0.15529 0.08869,0.22191 0.168507,0.28814 0.341434,0.50553 0.199565,0.21755 0.199532,0.0887 c 0.190697,0.0442 0.443442,0.0576 0.762719,0.0399 l 0.4124,-0.0399 0.403532,-0.008 0.319277,0.071 c 0.230591,0.0533 0.399099,0.19076 0.509959,0.40795 0.03077,0.0622 0.05763,0.17738 0.08869,0.35475 l -0.02207,0.35475 c -0.06207,0.28851 -0.177376,0.54102 -0.341431,0.76273 -0.212851,0.2972 -0.545433,0.53213 -0.988875,0.70951 l -0.425704,0.14624 c -0.30154,0.0442 -0.554302,0.0485 -0.753851,0.004 0.492221,0.65184 1.011044,1.14407 1.645168,1.67176 l -0.527694,0.46563 -0.195116,-0.17738 -0.141901,-0.12856 c -0.04875,-0.0362 -0.106421,-0.0887 -0.177376,-0.15964 -0.07096,-0.0709 -0.141901,-0.14625 -0.203983,-0.23494 l -0.634122,-0.72723 -0.30154,-0.40356 -0.235005,-0.27946 -0.08869,-0.15492 -0.523257,-0.11517 c -0.137485,-0.0326 -0.297124,-0.0887 -0.474486,-0.17737 -0.07096,-0.0145 -0.141902,-0.0533 -0.212853,-0.11088 -0.439006,-0.23492 -0.607514,-0.55875 -0.514392,-0.97558 l 0.09311,-0.20381 c 0.04875,-0.071 0.11088,-0.12882 0.195114,-0.1683 l 0.235008,-0.0844 0.297123,0.0146 c 0.314825,0.0709 0.642991,0.31927 0.975567,0.74057 l 0.146356,0.26135 0.203982,0.33702 c 0.19953,0.0442 0.376926,0.0666 0.53213,0.058 0.16409,0.018 0.297123,0.008 0.399097,-0.018 0.656294,-0.0973 1.050956,-0.43457 1.183989,-1.01993 l 0.05321,-0.24398 c 0.02679,-0.11087 0.03114,-0.18606 0.0087,-0.23058 -0.01303,-0.0446 -0.03077,-0.0753 -0.04875,-0.0974 l -0.146354,-0.0887 h -0.252778 l -0.523262,0.0398 -0.598645,0.0146 -0.430139,-0.0442 c -0.394662,-0.0887 -0.767155,-0.45677 -1.117472,-1.11305 -0.350302,-0.65185 -0.492221,-1.10862 -0.434573,-1.37468 l 0.08869,-0.18172 0.203982,-0.13756 0.266066,-0.0753 0.266065,0.004 2.594132,0.58089 0.257197,-1.15737 -4.243737,-0.95341 0.1153,-0.52326 6.722574,1.5077 -0.119707,0.52326 -1.685077,-0.37691"
       style="fill:#231f20;fill-opacity:1;fill-rule:evenodd;stroke:none"
       id="path3208" />
    <path
       d="m 90.469079,133.89879 -0.37249,1.66733 -3.117395,-0.70063 -0.0532,0.0446 -0.05763,0.0533 -0.03992,0.17737 0.02679,0.15529 0.08869,0.22191 0.168507,0.28814 0.341434,0.50553 0.199565,0.21755 0.199532,0.0887 c 0.190697,0.0442 0.443442,0.0576 0.762719,0.0399 l 0.4124,-0.0399 0.403532,-0.008 0.319277,0.071 c 0.230591,0.0533 0.399099,0.19076 0.509959,0.40795 0,0 0.08869,0.17738 0.08869,0.35475 l -0.02207,0.35475 c -0.06207,0.28851 -0.177376,0.54102 -0.341431,0.76273 -0.212851,0.2972 -0.545433,0.53213 -0.988875,0.70951 l -0.425704,0.14624 c -0.30154,0.0442 -0.554302,0.0485 -0.753851,0.004 0.492221,0.65184 1.011044,1.14407 1.645168,1.67176 l -0.527694,0.46563 -0.195116,-0.17738 -0.141901,-0.12856 c -0.04875,-0.0362 -0.106421,-0.0887 -0.177376,-0.15964 -0.07096,-0.0709 -0.141901,-0.14625 -0.203983,-0.23494 l -0.634122,-0.72723 -0.30154,-0.40356 -0.235005,-0.27946 -0.08869,-0.15492 -0.523257,-0.11517 c 0,0 -0.297124,-0.0887 -0.474486,-0.17737 0,0 -0.141902,-0.0533 -0.212853,-0.11088 -0.439006,-0.23492 -0.607514,-0.55875 -0.514392,-0.97558 l 0.09311,-0.20381 c 0.04875,-0.071 0.11088,-0.12882 0.195114,-0.1683 l 0.235008,-0.0844 0.297123,0.0146 c 0.314825,0.0709 0.642991,0.31927 0.975567,0.74057 l 0.146356,0.26135 0.203982,0.33702 c 0.19953,0.0442 0.376926,0.0666 0.53213,0.058 0.16409,0.018 0.399097,-0.018 0.399097,-0.018 0.656294,-0.0973 1.050956,-0.43457 1.183989,-1.01993 l 0.05321,-0.24398 0.0087,-0.23058 -0.04875,-0.0974 -0.146354,-0.0887 h -0.252778 l -0.523262,0.0398 -0.598645,0.0146 -0.430139,-0.0442 c -0.394662,-0.0887 -0.767155,-0.45677 -1.117472,-1.11305 -0.350302,-0.65185 -0.492221,-1.10862 -0.434573,-1.37468 l 0.08869,-0.18172 0.203982,-0.13756 0.266066,-0.0753 0.266065,0.004 2.594132,0.58089 0.257197,-1.15737 -4.243737,-0.95341 0.1153,-0.52326 6.722574,1.5077 -0.119707,0.52326 -1.685077,-0.37691"
       style="fill:none;stroke:#231f20;stroke-width:0.430138;stroke-linecap:butt;stroke-linejoin:miter;stroke-miterlimit:2.613;stroke-dasharray:none;stroke-opacity:1"
       id="path3210" />
    <path
       d="m 48.745659,118.88385 6.806829,-4.00429 v 4.72708 l 8.159327,-4.80245 v 5.72926 l 3.197214,-1.88018 h -0.700641 v -17.81306 h 2.758211 v 16.60244 l 5.059668,-2.97548 v 5.70708 h 1.960012 v 16.99268 H 46.328904 c -0.01773,-0.61194 -0.03077,-1.22831 -0.03077,-1.84912 0,-5.72927 0.860278,-11.25014 2.447798,-16.43396 z m 8.784583,0.80261 h 5.183386 v 2.76176 h -5.183386 z m 10.265666,0 h 5.183391 v 2.76176 h -5.183391 z"
       style="fill:#231f20;fill-opacity:1;fill-rule:evenodd;stroke:none"
       id="path3212" />
    <path
       d="m 71.26806,96.286082 c 0.239459,0.403498 -0.647428,1.401278 -1.982187,2.221624 -1.339195,0.820385 -2.616301,1.157394 -2.855763,0.749424 -0.23946,-0.407957 0.647424,-1.401279 1.982183,-2.221663 1.339194,-0.820345 2.61187,-1.157355 2.855767,-0.749385"
       style="fill:#0066b3;fill-opacity:1;fill-rule:evenodd;stroke:none"
       id="path3214" />
    <path
       d="m 73.170425,97.829256 c 0.181793,0.30624 -0.487786,1.059798 -1.494398,1.676205 -1.006613,0.620829 -1.968882,0.873559 -2.150693,0.567609 -0.181792,-0.306254 0.487787,-1.055392 1.494398,-1.676206 1.006614,-0.620826 1.968881,-0.873615 2.150693,-0.567608"
       style="fill:#0066b3;fill-opacity:1;fill-rule:evenodd;stroke:none"
       id="path3216" />
    <g
       id="g3218"
       transform="matrix(0,-4.430194,-4.4386413,0,-315.55932,3679.1563)">
      <path
         d="m 812.178,-93.325 c 0,-6.517 -5.486,-11.802 -12.25,-11.802 -6.764,0 -12.25,5.285 -12.25,11.802 0,6.516 5.486,11.801 12.25,11.801 6.764,0 12.25,-5.285 12.25,-11.801 z"
         style="fill:none;stroke:#231f20;stroke-width:0.604;stroke-linecap:butt;stroke-linejoin:miter;stroke-miterlimit:2.613;stroke-dasharray:none;stroke-opacity:1"
         id="path3220" />
    </g>
    <path
       d="M 84.345151,110.76887 H 111.83809 V 87.360047 H 84.345151 Z"
       style="fill:#0066b3;fill-opacity:1;fill-rule:nonzero;stroke:none"
       id="path3224" />
    <g
       id="g3226"
       transform="matrix(4.4344155,0,0,-4.4344155,-315.55932,3679.1563)">
      <g
         id="g3228"
         clip-path="url(#clipPath3230)">
        <g
           id="g3234"
           clip-path="url(#clipPath3236)">
          <path
             d="m 90.738,805.176 h 5.0895 v 4.1631 H 90.738 Z"
             style="fill:url(#linearGradient3240);stroke:none"
             id="path3246" />
        </g>
      </g>
    </g>
    <path
       d="M 86.810686,90.210924 H 109.37965 V 89.760568 H 86.810686 Z"
       style="fill:#fafdff;fill-opacity:1;fill-rule:nonzero;stroke:none"
       id="path3248" />
    <path
       d="M 86.810686,89.758615 H 109.37965 V 89.45816 H 86.810686 Z"
       style="fill:#ffffff;fill-opacity:1;fill-rule:nonzero;stroke:none"
       id="path3250" />
    <path
       d="M 109.3774,89.461491 H 86.810686 109.3774"
       style="fill:#ffffff;fill-opacity:1;fill-rule:evenodd;stroke:none"
       id="path3252" />
    <path
       d="m 94.136341,93.42585 0.0043,-0.0039 v 0 c 0.235042,-0.186431 0.501089,-0.319279 0.793761,-0.394646 v 0 c 0.288254,-0.07526 0.594211,-0.09736 0.913489,-0.07526 1.516571,0.115429 3.45884,1.348073 5.002029,3.316947 v 0.0039 l 0.013,0.01456 v 0 c 0.29266,0.372496 0.5543,0.762722 0.78932,1.148528 0.23504,0.390239 0.43899,0.780453 0.61194,1.166233 0.93567,2.084168 0.92237,4.061928 -0.20397,4.975398 l -0.009,0.008 h -0.004 c -0.80708,0.64742 -1.98663,0.6164 -3.232701,0.0485 -1.161815,-0.52773 -2.407886,-1.52989 -3.467712,-2.88238 l -0.0087,-0.0146 v 0 h -0.0043 l -0.0087,-0.0145 v 0 C 95.032672,100.34556 94.771042,99.959752 94.531586,99.573945 94.296544,99.183719 94.092576,98.79348 93.919638,98.407699 92.983976,96.31908 93.00171,94.345774 94.12362,93.43229 l 0.01303,-0.0078 z m 0.567604,0.744991 v 0.0039 0 c -0.767153,0.625258 -0.696201,2.155122 0.06208,3.840191 0.155185,0.35006 0.341432,0.705085 0.558737,1.059837 0.212851,0.354766 0.456744,0.709518 0.731678,1.064281 h 0.0047 l 0.01303,0.0181 v 0.004 c 0.966698,1.22832 2.08861,2.1374 3.117394,2.60745 0.935666,0.4257 1.773756,0.47892 2.288146,0.0666 v 0 -0.004 c 0.76716,-0.62081 0.69621,-2.15068 -0.0576,-3.840211 -0.15522,-0.34607 -0.34143,-0.70064 -0.55875,-1.059812 -0.21285,-0.350046 -0.46118,-0.705084 -0.73168,-1.059836 h -0.004 l -0.013,-0.01807 v 0 c -1.374673,-1.760438 -3.059751,-2.855762 -4.336862,-2.953318 -0.221721,-0.01807 -0.430139,-0.0039 -0.607516,0.0442 h -0.0043 c -0.17296,0.0442 -0.328147,0.119459 -0.461179,0.225882"
       style="fill:#231f20;fill-opacity:1;fill-rule:evenodd;stroke:none"
       id="path3254" />
    <path
       d="m 102.0429,93.421443 v 0 l 0.005,0.0039 0.0176,0.0078 0.009,0.0117 c 0.79818,0.66072 1.0332,1.835856 0.76714,3.201648 -0.24387,1.263788 -0.92236,2.72273 -1.97775,4.079659 v 0 l -0.013,0.0145 v 0 0 l -0.009,0.0146 c -1.059829,1.35248 -2.310335,2.35466 -3.467723,2.88239 -1.250505,0.56759 -2.425623,0.59862 -3.232685,-0.0485 h -0.0043 l -0.01302,-0.0146 -0.01339,-0.008 c -0.79376,-0.65631 -1.028787,-1.83141 -0.767152,-3.19721 0.248326,-1.268245 0.926791,-2.727173 1.982182,-4.079653 h -0.0043 l 0.01303,-0.01456 0.0043,-0.0039 c 1.538742,-1.968874 3.48545,-3.201648 5.002018,-3.316934 0.31486,-0.02899 0.62526,0 0.90905,0.07526 0.29268,0.07526 0.55874,0.208501 0.79377,0.394671 z m -0.56318,0.749398 c -0.13302,-0.106331 -0.29266,-0.182088 -0.46116,-0.225882 -0.1818,-0.04887 -0.3858,-0.06188 -0.61196,-0.0442 -1.272672,0.09736 -2.95775,1.192829 -4.336855,2.953318 v 0 l -0.01339,0.01456 v 0.0039 c -0.962269,1.232774 -1.578652,2.54536 -1.795938,3.676113 -0.199567,1.01991 -0.07096,1.86245 0.439006,2.27927 l 0.0091,0.008 v 0 c 0.514393,0.41243 1.348063,0.3591 2.283725,-0.0666 1.033219,-0.47002 2.155127,-1.37912 3.121822,-2.60744 v -0.008 l 0.013,-0.0146 0.004,-0.004 c 0.95784,-1.232754 1.57865,-2.545354 1.79151,-3.671693 0.19955,-1.024363 0.0709,-1.866898 -0.43459,-2.283746 l -0.013,-0.0078 h 0.004"
       style="fill:#231f20;fill-opacity:1;fill-rule:evenodd;stroke:none"
       id="path3256" />
    <path
       d="m 99.874475,94.929143 c 0.594215,0 1.077555,0.487782 1.077555,1.095272 0,0.607554 -0.48334,1.095337 -1.077555,1.095337 -0.594213,0 -1.077563,-0.487783 -1.077563,-1.095337 0,-0.60749 0.48335,-1.095272 1.077563,-1.095272"
       style="fill:#231f20;fill-opacity:1;fill-rule:evenodd;stroke:none"
       id="path3258" />
    <path
       d="m 100.10063,99.634032 c 0.59421,0 1.07313,0.492258 1.07313,1.099738 0,0.60753 -0.47892,1.09532 -1.07313,1.09532 -0.598648,0 -1.077563,-0.48779 -1.077563,-1.09532 0,-0.60748 0.478915,-1.099738 1.077563,-1.099738"
       style="fill:#231f20;fill-opacity:1;fill-rule:evenodd;stroke:none"
       id="path3260" />
    <path
       d="m 92.58873,112.80426 h 11.00889 v -1.98119 H 92.58873 Z"
       style="fill:#0066b3;fill-opacity:1;fill-rule:nonzero;stroke:none"
       id="path3264" />
    <path
       d="m 90.690801,114.90175 h 14.802989 v -2.09539 H 90.690801 Z"
       style="fill:#0066b3;fill-opacity:1;fill-rule:nonzero;stroke:none"
       id="path3266" />
    <path
       d="m 81.861879,114.90175 h 33.094011 l 2.82474,6.75359 H 78.407469 l 3.45441,-6.75359"
       style="fill:#0066b3;fill-opacity:1;fill-rule:evenodd;stroke:none"
       id="path3268" />
    <path
       d="m 82.380706,115.99262 h 31.697204 l 1.87578,4.57187 H 80.234448 l 2.146258,-4.57187"
       style="fill:#ffffff;fill-opacity:1;fill-rule:evenodd;stroke:none"
       id="path3270" />
  </g>
</svg>
